<svg enable-background="new 0 0 102.2 45.4" viewBox="0 0 102.2 45.4" xmlns="http://www.w3.org/2000/svg"><g clip-rule="evenodd" fill-rule="evenodd"><path d="m57.7 4.6c-1.9 1-2.6 2.6-2.6 7.2 0 0 1-.9 2.4-1.4 1-.4 1.9-.9 2.4-1.3 1.6-1.2 1.8-2.7 1.8-5.2 0 0-2.6-.1-4 .7"/><path d="m44.5 9.1-5.1 19.6-4.2-16.1c-.5-1.6-1.2-3.7-2.4-5.1-1.5-1.8-4.6-1.9-4.9-1.9s-3.4.1-4.9 1.9c-1.2 1.4-1.9 3.5-2.3 5.2l-4.2 16.1-5.2-19.7s-.4-2.2-2-3.5c-2.5-2.1-6.2-1.7-6.2-1.7l9.8 36.7s3.2.2 4.8-.6c2.1-1.1 3.1-1.9 4.4-6.9 1.1-4.5 4.3-17.5 4.6-18.5.1-.5.3-1.6 1.1-1.6s1 1.1 1.1 1.6c.3.9 3.5 14 4.6 18.5 1.3 5 2.3 5.8 4.4 6.9 1.6.8 4.8.6 4.8.6l9.8-36.7s-3.7-.5-6.2 1.7c-1.4 1.4-1.8 3.5-1.8 3.5z"/><path d="m61.7 9.9s-.6.9-2 1.7c-.9.5-1.8.8-2.7 1.3-1.5.7-2 1.6-2 2.8v24.9s2.5.3 4.1-.5c2.1-1 2.6-2.1 2.6-6.6v-22.3z"/><path d="m86.1 22.4 12.4-18.4s-5.2-.9-7.8 1.5c-1.7 1.5-3.6 4.2-3.6 4.2l-4.6 6.5c-.2.3-.5.7-1 .7s-.8-.4-1-.7l-4.6-6.5s-1.9-2.7-3.5-4.2c-2.4-2.3-7.7-1.5-7.7-1.5l12.4 18.3-12.3 18.3s5.4.7 8-1.7c1.7-1.5 3.3-3.9 3.3-3.9l4.6-6.5c.2-.3.5-.7 1-.7s.8.4 1 .7l4.6 6.5s1.7 2.4 3.4 3.9c2.6 2.3 7.9 1.7 7.9 1.7z"/></g></svg>