<?xml version="1.0" encoding="utf-8"?>
<!-- Generator: Adobe Illustrator 23.0.4, SVG Export Plug-In . SVG Version: 6.00 Build 0)  -->
<svg version="1.1" id="Layer_1" xmlns="http://www.w3.org/2000/svg" xmlns:xlink="http://www.w3.org/1999/xlink" x="0px" y="0px"
	 viewBox="0 0 102.2 45.4" style="enable-background:new 0 0 102.2 45.4;" xml:space="preserve">
<style type="text/css">
	.st0{fill-rule:evenodd;clip-rule:evenodd;}
</style>
<g>
	<path class="st0" d="M57.7,4.6c-1.9,1-2.6,2.6-2.6,7.2c0,0,1-0.9,2.4-1.4c1-0.4,1.9-0.9,2.4-1.3c1.6-1.2,1.8-2.7,1.8-5.2
		C61.7,3.9,59.1,3.8,57.7,4.6"/>
	<path class="st0" d="M44.5,9.1l-5.1,19.6l-4.2-16.1C34.7,11,34,8.9,32.8,7.5c-1.5-1.8-4.6-1.9-4.9-1.9c-0.3,0-3.4,0.1-4.9,1.9
		c-1.2,1.4-1.9,3.5-2.3,5.2l-4.2,16.1L11.3,9.1c0,0-0.4-2.2-2-3.5C6.8,3.5,3.1,3.9,3.1,3.9l9.8,36.7c0,0,3.2,0.2,4.8-0.6
		c2.1-1.1,3.1-1.9,4.4-6.9c1.1-4.5,4.3-17.5,4.6-18.5c0.1-0.5,0.3-1.6,1.1-1.6c0.8,0,1,1.1,1.1,1.6c0.3,0.9,3.5,14,4.6,18.5
		c1.3,5,2.3,5.8,4.4,6.9c1.6,0.8,4.8,0.6,4.8,0.6l9.8-36.7c0,0-3.7-0.5-6.2,1.7C44.9,7,44.5,9.1,44.5,9.1z"/>
	<path class="st0" d="M61.7,9.9c0,0-0.6,0.9-2,1.7c-0.9,0.5-1.8,0.8-2.7,1.3c-1.5,0.7-2,1.6-2,2.8v24.9c0,0,2.5,0.3,4.1-0.5
		c2.1-1,2.6-2.1,2.6-6.6V11.2h0C61.7,11.2,61.7,9.9,61.7,9.9z"/>
	<path class="st0" d="M86.1,22.4L98.5,4c0,0-5.2-0.9-7.8,1.5C89,7,87.1,9.7,87.1,9.7l-4.6,6.5c-0.2,0.3-0.5,0.7-1,0.7
		c-0.5,0-0.8-0.4-1-0.7l-4.6-6.5c0,0-1.9-2.7-3.5-4.2C70,3.2,64.7,4,64.7,4l12.4,18.3L64.8,40.6c0,0,5.4,0.7,8-1.7
		c1.7-1.5,3.3-3.9,3.3-3.9l4.6-6.5c0.2-0.3,0.5-0.7,1-0.7c0.5,0,0.8,0.4,1,0.7l4.6,6.5c0,0,1.7,2.4,3.4,3.9c2.6,2.3,7.9,1.7,7.9,1.7
		L86.1,22.4z"/>
</g>
</svg>
