<svg viewBox="0 0 1076 856" xmlns="http://www.w3.org/2000/svg" xmlns:xlink="http://www.w3.org/1999/xlink"><clipPath id="a"><path d="m369.75 31.3h215v272.17h-215z"/></clipPath><clipPath id="b"><path d="m602.67 482.5h215v272.17h-215z"/></clipPath><clipPath id="c"><path d="m602.58 31.5h215v272.17h-215z"/></clipPath><clipPath id="d"><path d="m27.5 261.5h215v272.17h-215z"/></clipPath><clipPath id="e"><path d="m370.47 482.72h215v272.17h-215z"/></clipPath><clipPath id="f"><path d="m835.92 482.85h215v272.17h-215z"/></clipPath><path d="m325.97 194.25 18.18-28.2-17.57-28.68 36.13 28.2z" fill="#99d5e7"/><path d="m347.32 166.23c-24-1.36-50.31 4.5-64.33 19.79-11.14 12.15-12.82 28-11.89 43 2.08 33.6 15.29 66.1 28.1 98.22 5.26 13.19 10.37 27.88 2.81 40.37-4.49 7.4-12.92 12.92-22 17.05a118.46 118.46 0 0 1 -39.73 10" fill="none" stroke="#99d5e7" stroke-miterlimit="10" stroke-width="10"/><path d="m328.54 595.11 18.17 28.21-17.57 28.68 36.14-28.21z" fill="#99d5e7"/><path d="m349.88 623.14c-24 1.36-50.31-4.5-64.33-19.79-11.13-12.15-12.81-28.05-11.89-43 2.09-33.61 15.29-66.1 28.11-98.22 5.26-13.19 10.37-27.88 2.8-40.37-4.48-7.4-12.92-12.92-22-17.05a118.76 118.76 0 0 0 -42.3-10.15" fill="none" stroke="#99d5e7" stroke-miterlimit="10" stroke-width="10"/><g clip-path="url(#a)"><rect fill="#5971b5" height="70.5" rx="19.76" width="294.51" x="432.45" y="173.6"/><path d="m344.54 345.93a1121.65 1121.65 0 0 1 55.39-108.51c3.19-5.49 8.75-11.82 14.61-9.36a11.14 11.14 0 0 1 4.59 4.29c6.24 9.25 7.19 21.27 5 32.21s-7.15 21.09-12.09 31.1l-33.61 68.14" fill="#fff" stroke="#134484" stroke-miterlimit="10" stroke-width="4"/><path d="m414.54 228.06a11.14 11.14 0 0 1 4.59 4.29 35.19 35.19 0 0 1 5.27 13.11c-6.59 16.59-13.43 30.1-24.48 24.87-9-4.28-8.4-13.25-4.54-25q2.26-4 4.55-7.91c3.19-5.49 8.75-11.82 14.61-9.36z" fill="#99d5e7" stroke="#134484" stroke-miterlimit="10" stroke-width="3"/><path d="m581.75 34.3v266.17h-209v-266.17zm3-3h-215v272.17h215z" fill="#040506"/></g><g clip-path="url(#b)"><rect fill="#5971b5" height="70.5" rx="19.76" width="294.51" x="665.37" y="629.8"/><path d="m646.46 774.13a1121.65 1121.65 0 0 1 55.39-108.51c3.18-5.49 8.75-11.82 14.6-9.36a11.08 11.08 0 0 1 4.6 4.28c6.23 9.25 7.19 21.27 5 32.22s-7.16 21.09-12.09 31.09l-33.61 68.15" fill="#fff" stroke="#134484" stroke-miterlimit="10" stroke-width="4"/><path d="m716.45 656.26a11.08 11.08 0 0 1 4.6 4.28 35.47 35.47 0 0 1 5.27 13.12c-6.59 16.58-13.44 30.1-24.48 24.86-9-4.27-8.41-13.24-4.54-25q2.25-4 4.55-7.91c3.15-5.48 8.75-11.81 14.6-9.35z" fill="#99d5e7" stroke="#134484" stroke-miterlimit="10" stroke-width="3"/><path d="m814.86 485.59v266.18h-209v-266.18zm3-3h-215v272.18h215z" fill="#040506"/></g><g clip-path="url(#c)"><rect fill="#5971b5" height="70.5" rx="19.76" width="294.51" x="665.29" y="173.8"/><path d="m814.58 34.5v266.17h-209v-266.17zm3-3h-215v272.17h215z" fill="#040506"/></g><g clip-path="url(#d)"><rect fill="#5971b5" height="70.5" rx="19.76" width="294.51" x="90.2" y="403.8"/><path d="m51.29 538.13a1121.65 1121.65 0 0 1 55.39-108.51c3.19-5.49 8.75-11.82 14.61-9.36a11.05 11.05 0 0 1 4.59 4.28c6.24 9.25 7.19 21.27 5 32.22s-7.15 21.09-12.09 31.09l-33.61 68.15" fill="#fff" stroke="#134484" stroke-miterlimit="10" stroke-width="4"/><g fill="#99d5e7"><path d="m121.29 420.26a11.05 11.05 0 0 1 4.59 4.28 35.3 35.3 0 0 1 5.27 13.12c-6.59 16.58-13.43 30.1-24.47 24.86-9-4.27-8.41-13.24-4.55-25q2.27-4 4.55-7.91c3.19-5.48 8.75-11.81 14.61-9.35z" stroke="#134484" stroke-miterlimit="10" stroke-width="3"/><path d="m101.59 401.11-23.71-24.77-8.43 20.02 27.4 15.81z"/><path d="m91.62 419.71-30.08-4.38 2.64 17.92 25.29-2.24z"/><path d="m145.85 419.71 29.51-4.38v13.18l-29.51-4.22z"/><path d="m147.96 433.25 29.81 14.75-6.1 12.65-25.82-18.96z"/><path d="m145.85 458.54 20.55 16.34-10.27 12.98-15.55-24.19z"/></g><path d="m239.5 264.5v266.17h-209v-266.17zm3-3h-215v272.17h215z" fill="#040506"/></g><path d="m617.67 766h185.42v45.93h-185.42z" fill="#d5e2f5"/><text fill="#374d9c" font-family="source-code-pro,Menlo,Monaco,Consolas,Courier New,monospace" font-size="24" transform="translate(631.18 797.7)">onLongPress</text><path d="m41.92 544.74h185.42v45.93h-185.42z" fill="#d5e2f5"/><text fill="#374d9c" font-family="source-code-pro,Menlo,Monaco,Consolas,Courier New,monospace" font-size="24" transform="translate(69.84 576.44)">onPressIn</text><path d="m616.92 314.74h185.42v45.93h-185.42z" fill="#d5e2f5"/><text fill="#374d9c" font-family="source-code-pro,Menlo,Monaco,Consolas,Courier New,monospace" font-size="24" transform="translate(659.23 346.44)">onPress</text><path d="m384.92 314.74h185.42v45.93h-185.42z" fill="#d5e2f5"/><text fill="#374d9c" font-family="source-code-pro,Menlo,Monaco,Consolas,Courier New,monospace" font-size="24" transform="translate(405.64 346.44)">onPressOut</text><text fill="#71c9e4" font-family="-apple-system,BlinkMacSystemFont,'Segoe UI',Helvetica,Arial,sans-serif,'Apple Color Emoji','Segoe UI Emoji','Segoe UI Symbol'" font-size="48" font-weight="700" letter-spacing=".1em" transform="translate(703.75 560)">!</text><g clip-path="url(#e)"><rect fill="#5971b5" height="70.5" rx="19.76" width="294.51" x="433.17" y="625.01"/><path d="m394.26 759.34a1123.83 1123.83 0 0 1 55.38-108.51c3.19-5.49 8.76-11.82 14.61-9.36a11 11 0 0 1 4.59 4.29c6.24 9.25 7.19 21.27 5 32.21s-7.16 21.09-12.09 31.1l-33.63 68.15" fill="#fff" stroke="#134484" stroke-miterlimit="10" stroke-width="4"/><path d="m464.25 641.47a11 11 0 0 1 4.59 4.29 35.27 35.27 0 0 1 5.28 13.11c-6.59 16.59-13.44 30.11-24.48 24.87-9-4.28-8.41-13.25-4.54-25q2.25-4 4.54-7.91c3.19-5.49 8.76-11.83 14.61-9.36z" fill="#99d5e7" stroke="#134484" stroke-miterlimit="10" stroke-width="3"/><path d="m582.47 485.72v266.17h-209v-266.17zm3-3h-215v272.17h215z" fill="#040506"/><text fill="#71c9e4" font-family="-apple-system,BlinkMacSystemFont,'Segoe UI',Helvetica,Arial,sans-serif,'Apple Color Emoji','Segoe UI Emoji','Segoe UI Symbol'" font-size="48" font-weight="700" letter-spacing=".1em" transform="translate(460.94 559.95)">...</text></g><circle cx="443.5" cy="793.5" fill="#99d5e7" r="18.5"/><path d="m443.84 782.06v10.98" fill="none" stroke="#fff" stroke-linecap="round" stroke-miterlimit="10" stroke-width="5"/><path d="m437.1 802.92 6.56-8.8" fill="none" stroke="#fff" stroke-linecap="round" stroke-miterlimit="10" stroke-width="5"/><text fill="#99d5e7" font-family="-apple-system,BlinkMacSystemFont,'Segoe UI',Helvetica,Arial,sans-serif,'Apple Color Emoji','Segoe UI Emoji','Segoe UI Symbol'" font-size="24" font-weight="700" transform="translate(466.73 801.97)">500ms</text><g clip-path="url(#f)"><rect fill="#5971b5" height="70.5" rx="19.76" width="294.51" x="898.62" y="625.15"/><path d="m810.71 797.48a1121.65 1121.65 0 0 1 55.39-108.48c3.19-5.49 8.75-11.82 14.6-9.36a11.08 11.08 0 0 1 4.6 4.28c6.24 9.25 7.19 21.27 5 32.22s-7.15 21.09-12.09 31.09l-33.61 68.12" fill="#fff" stroke="#134484" stroke-miterlimit="10" stroke-width="4"/><path d="m880.7 679.61a11.08 11.08 0 0 1 4.6 4.28 35.3 35.3 0 0 1 5.27 13.11c-6.59 16.58-13.43 30.1-24.48 24.86-9-4.27-8.41-13.24-4.54-25q2.26-4 4.55-7.91c3.19-5.47 8.75-11.8 14.6-9.34z" fill="#99d5e7" stroke="#134484" stroke-miterlimit="10" stroke-width="3"/><path d="m1047.92 485.85v266.15h-209v-266.15zm3-3h-215v272.15h215z" fill="#040506"/></g><path d="m851.09 766.29h185.42v45.93h-185.42z" fill="#d5e2f5"/><text fill="#374d9c" font-family="source-code-pro,Menlo,Monaco,Consolas,Courier New,monospace" font-size="24" transform="translate(871.8 797.99)">onPressOut</text></svg>