<svg viewBox="0 0 225 542" xmlns="http://www.w3.org/2000/svg"><path d="m75.94 56.98h3.15v29.17h-3.15z" fill="#a21732"/><path d="m25.59 87.15v-21.12h40.91l-9.45 7.04v14.08z" fill="#a21732"/><path d="m87.42 83.77 75.65-26.39-.15 2.01-65.05 28.05z" fill="#a21732"/><path d="m13 82.12h129.02l-40.91 32.19h-79.72z" fill="#d23c6f"/><path d="m75.24 23.93v45.12c14.55-14.79 33.61-23.81 56.29-28.17q-28.15-14.34-56.29-16.95z" fill="#7b1619"/><path d="m82.63 45.06c1.37-2.06 3.17-1.57 4.37-1.48 3.12.25 4.37-1.25 5.12-3.76.53-1.75 1.23-3.45 1.86-5.19 2.06 0 2.87.66 2.07 2.47l-2.78 6.25 4.73 2.39c-.23 1.5-.91 1.4-1.94 1-4.05-1.38-4.19-1.28-5.83 2.6-.65 1.54-1.39 3-2.18 4.76-2.12-1.29-1.15-2.5-.61-3.62s1.24-2.31 2.17-4z" fill="#fff"/><text fill="#fff" font-family="source-code-pro,Menlo,Monaco,Consolas,Courier New,monospace" font-size="18" font-weight="700" transform="matrix(1.04 0 0 1 37.72 99.03)">app://</text><circle cx="86.43" cy="36.36" fill="#fff" r="4.2"/><path d="m214.81 104.85c-5.45-.8-10.56-2.68-16.06-3.25-11.61-1.22-23.26 3.49-34.88 2.25-5-.54-9.73-2.16-14.77-2.39-10-.44-19.31 4.62-29.28 4.13-8.66-.42-16.42-5-25.09-4.69-5.36.17-10.28 2.19-15.55 2.93-12 1.69-24.29-3.34-36.36-1.91-4.75.56-9.24 2.11-14 2.5-9.52.79-19.44-2.42-28.82-3.42v441h225v-437a38.22 38.22 0 0 1 -10.19-.15z" fill="#08a5d3"/><path d="m185.85 474.43c-16.44 1.17-32.27 4.87-48.65 6.39-27 2.5-54.31-1-81.4-3-9.89-.72-19.83-1.21-29.79-1.15a204.58 204.58 0 0 0 -26 1.68v63.65h224.99v-66.68c-13.06-1.13-26.11-1.81-39.15-.89z" fill="#99d5e7"/><text fill="#134484" font-family="source-code-pro,Menlo,Monaco,Consolas,Courier New,monospace" font-size="18" transform="translate(26 513.16)">user data</text><path d="m164 417a3 3 0 1 1 -3 3 3 3 0 0 1 3-3m0-4a7 7 0 1 0 7 7 7 7 0 0 0 -7-7z" fill="#b3bfe0"/><path d="m164 417a3 3 0 1 1 -3 3 3 3 0 0 1 3-3m0-2a5 5 0 1 0 5 5 5 5 0 0 0 -5-5z" fill="#8893aa"/><path d="m168.45 429.24 25.55 24.76-9 2v-8h-9v-8l-8 1z" fill="#54596a"/><path d="m137 461-4.46-7.21 27.8-23.88 1.66 8.09-8.26-1.62 1.26 8.62-9.81-1.25.81 10.25-9-3z" fill="#54596a"/><path d="m128 418 36 2v7l-32 29z" fill="#afbdd3"/><path d="m197 420h-33v7l30.41 27.76z" fill="#afbdd3"/><circle cx="163.5" cy="424.5" fill="#b3bfe0" r="3.5"/><path d="m163.5 422a2.5 2.5 0 1 1 -2.5 2.5 2.5 2.5 0 0 1 2.5-2.5m0-2a4.5 4.5 0 1 0 4.5 4.5 4.49 4.49 0 0 0 -4.5-4.5z" fill="#54596a"/><g fill="#c7d7f9"><path d="m146.7 419.04-9.11 31.89 8.31-7.53 3.91-24.19z"/><path d="m151.89 419.33-1.6 20.1 4.57-4.15-1.71-15.88z"/><path d="m180.04 420 .86 22.43 6.84 6.25-5.55-28.68z"/><path d="m176.83 420-2.7 16.24 2.23 2.05 1.41-18.29z"/></g><path d="m163.87 323.53c0-10.27-.07-20.55-.17-30.82-.14-13.65-.34-27.29-.52-40.94 0-3.3-.18-6.6-.18-9.9q0-36.1 0-72.22 0-32.43 0-64.88c0-14.73.23-29.28.26-44a6.72 6.72 0 0 1 -.38-.76 1.92 1.92 0 0 1 -1.28 1q-.06 30.87-.08 61.75 0 27 .1 54.1.1 29 .27 58c0 3.16-.05 6.33.06 9.48.32 9.54.59 19.07.65 28.63.15 22.63.46 45.26.5 67.89 0 24 .2 48-.19 72v4.05l.75.11c0-1.61 0-3 0-4.46.13-12.78.34-25.57.36-38.35-.02-16.91-.09-33.79-.15-50.68z"/><path d="m167.24 463.26-1.69.4c6.45 1.34 17.45 5.6 17.45 18.34l-21 11c-2.95-21.6-13.29-18.36-21.87-18.6a27.47 27.47 0 0 0 -4.32 4c23.08-5.35 21.19 16.6 21.19 16.6l-25-5.77c1 12 0 28.77 0 28.77l27 8 28-21 .74-21.2s-1.74-24.8-20.5-20.54zm-10.24 57.74-23-7 1-19 22 4zm26-19-22 15v-19l11-5s4 9 5-3l7-4z" fill="#8893aa"/><path d="m172 493-11 5v19l22-15 1-16-7 4c-1 12-5 3-5 3z" fill="#face96"/><path d="m162 493 21-11c0-12.74-11-17-17.45-18.34-10.34 2.5-19.34 6.15-25.42 10.74 8.58.24 18.92-3 21.87 18.6z" fill="#face96"/><path d="m135.81 478.41a14.26 14.26 0 0 0 -3.81 10.59v.23l25 5.77s1.89-21.95-21.19-16.59z" fill="#face96"/><path d="m134 514 23 7v-22l-22-4z" fill="#face96"/><text fill="#fff" font-family="source-code-pro,Menlo,Monaco,Consolas,Courier New,monospace" font-size="18" font-weight="700" transform="matrix(0 -1.04 1 0 151.7 347.59)">deep linking</text></svg>