<svg xmlns="http://www.w3.org/2000/svg" viewBox="0 0 2000 1377"><path opacity=".4" fill="#97AADE" d="M1974.91 688.5c77.54 502.27-364.34 630.37-855.44 630.37S23.9 1103.45 23.9 571.91c0-344.64 450.64-501.1 941.73-501.1s937.08 150.02 1009.28 617.69z"/><path opacity=".6" fill="#97AADE" d="M1906.15 886.45c-39.69 266.33-326.54 331.73-651.63 331.73S665.88 1058.95 665.88 732.3c0-406.26 263.54-485.88 588.64-485.88s716.3 206.07 651.63 640.03z"/><path fill="#97AADE" d="M1889.35 803.72c0 122.93-77.07 147.52-240.01 147.52s-343.51-60.22-350.06-147.52c-9.72-129.39 52.69-158.51 295.04-158.51 162.93 0 295.03 70.97 295.03 158.51z"/><path fill="#97AADE" d="M1312.15 645.21c0 86.31-149.63 130.41-306.34 130.41s-283.74 28.1-283.74-101.29c0-86.31 41.53-149.06 198.23-149.06s391.85 33.63 391.85 119.94zM1401.54 964.49c0 119.42-128.63 184.16-272.04 190.47-213.08 9.37-283.33-75.66-283.33-154.54s139.78-131.13 283.33-131.13 272.04 16.32 272.04 95.2z"/><g fill="#374D9C"><path d="M471.41 506.3l-13.01-.68-9.78-18.54c-.88-1.71-1.75-3.17-2.61-4.38-.86-1.22-1.75-2.23-2.66-3.03s-1.92-1.4-3.03-1.8c-1.11-.4-2.36-.64-3.76-.71l-4.49-.24-1.43 27.24-11.09-.58 3.52-67.13 22.09 1.16c3.15.17 6.03.69 8.65 1.58 2.61.89 4.86 2.14 6.75 3.76 1.89 1.62 3.32 3.59 4.31 5.91.99 2.32 1.4 5 1.25 8.02-.12 2.37-.59 4.53-1.4 6.47-.81 1.94-1.9 3.66-3.27 5.13-1.38 1.48-3.01 2.71-4.89 3.71s-3.98 1.73-6.29 2.21l-.01.19c1.18.75 2.2 1.56 3.06 2.44.86.88 1.68 1.77 2.44 2.69.76.92 1.52 1.95 2.25 3.1.74 1.15 1.55 2.48 2.44 4l10.96 19.48zm-37.73-60.23l-1.14 21.81 9.27.49c1.72.09 3.31-.09 4.79-.55 1.48-.46 2.78-1.15 3.89-2.1 1.11-.94 2-2.12 2.67-3.52.67-1.4 1.05-3 1.14-4.77.17-3.21-.71-5.78-2.65-7.7-1.93-1.92-4.8-2.97-8.61-3.17l-9.36-.49zM517.17 487.62l-32.67-1.71c-.11 4.44 1.08 7.93 3.56 10.47 2.48 2.54 6 3.93 10.55 4.17 5.12.27 9.89-1.01 14.33-3.85l-.46 8.75c-4.51 2.52-10.36 3.59-17.54 3.21-7.05-.37-12.47-2.84-16.25-7.4-3.78-4.56-5.47-10.79-5.05-18.69.39-7.46 2.92-13.42 7.58-17.89 4.66-4.46 10.27-6.53 16.82-6.18s11.51 2.72 14.88 7.12c3.37 4.4 4.86 10.35 4.46 17.84l-.21 4.16zm-10.09-8.23c.17-3.9-.59-6.99-2.29-9.25-1.7-2.26-4.14-3.48-7.32-3.65-3.12-.16-5.83.84-8.11 3-2.29 2.16-3.78 5.08-4.47 8.73l22.19 1.17zM563.2 511.11l-10.53-.55.39-7.49-.19-.01c-3.61 5.57-8.61 8.19-15.01 7.85-4.71-.25-8.33-1.72-10.87-4.42-2.53-2.7-3.69-6.15-3.47-10.37.47-9.05 5.96-14.05 16.46-15l14.34-1.27c.36-6.83-2.71-10.42-9.2-10.76-5.71-.3-10.96 1.4-15.76 5.09l.5-9.5c5.21-2.73 11.13-3.92 17.74-3.58 12.11.63 17.85 6.91 17.23 18.83l-1.63 31.18zm-9.25-24.1l-10.14.88c-3.14.24-5.53.88-7.16 1.9-1.63 1.03-2.52 2.93-2.67 5.7-.11 2.03.53 3.73 1.92 5.1 1.38 1.37 3.29 2.12 5.73 2.25 3.31.17 6.11-.84 8.4-3.06 2.29-2.21 3.53-5.08 3.71-8.61l.21-4.16zM610.88 511.4c-3.96 2.01-8.55 2.88-13.8 2.61-7.12-.37-12.74-2.9-16.88-7.57-4.14-4.68-6.02-10.56-5.65-17.64.41-7.9 3.09-14.11 8.04-18.66 4.95-4.54 11.35-6.61 19.22-6.2 4.37.23 8.18 1.2 11.44 2.9l-.53 10.11c-3.21-2.67-6.7-4.11-10.48-4.3-4.59-.24-8.43 1.11-11.53 4.07-3.1 2.95-4.78 6.94-5.04 11.96-.26 4.96.92 8.95 3.53 11.97s6.24 4.65 10.89 4.89c3.9.2 7.66-.99 11.27-3.59l-.48 9.45zM646.83 514.98c-2.18.95-5 1.33-8.46 1.15-9.3-.49-13.72-5.19-13.25-14.12l1.42-27.1-8-.42.45-8.52 8 .42.58-11.09 11.02-2.52-.74 14.18 11.47.6-.45 8.52-11.47-.6-1.26 23.97c-.15 2.84.26 4.89 1.23 6.17.97 1.27 2.65 1.97 5.05 2.09 1.84.1 3.46-.35 4.86-1.34l-.45 8.61zM131.79 581.81c-5.19 2.36-11.55 3.34-19.07 2.94-9.74-.51-17.38-3.99-22.92-10.45-5.54-6.46-8.05-14.68-7.53-24.66.56-10.74 4.32-19.24 11.26-25.51 6.95-6.27 15.46-9.14 25.54-8.61 6.49.34 11.83 1.54 16 3.61l-.58 11.05c-4.38-2.92-9.31-4.52-14.77-4.81-7.27-.38-13.28 1.64-18.04 6.05-4.75 4.41-7.33 10.51-7.74 18.28-.39 7.4 1.41 13.4 5.39 18s9.41 7.09 16.27 7.45c6.33.33 11.91-.88 16.71-3.63l-.52 10.29zM164.35 587.46c-7.4-.39-13.18-2.94-17.37-7.65-4.18-4.71-6.08-10.76-5.69-18.16.42-8.05 3.05-14.22 7.89-18.5 4.84-4.28 11.16-6.22 18.96-5.81 7.49.39 13.21 2.9 17.16 7.52 3.95 4.62 5.72 10.83 5.31 18.63-.4 7.65-2.98 13.65-7.73 18.02-4.73 4.37-10.92 6.35-18.53 5.95zm2.69-41.49c-4.24-.22-7.68 1.08-10.3 3.92-2.62 2.84-4.07 6.86-4.34 12.07-.26 5.02.78 9.04 3.12 12.06 2.35 3.02 5.61 4.64 9.79 4.86 4.28.22 7.63-1.02 10.08-3.74s3.8-6.7 4.08-11.94c.28-5.27-.66-9.41-2.8-12.4-2.14-3-5.35-4.61-9.63-4.83zM272.07 591.98l-10.86-.57 1.37-26.12c.26-5.02-.26-8.7-1.56-11.02-1.3-2.32-3.64-3.57-7.01-3.75-2.84-.15-5.33 1.15-7.46 3.88-2.13 2.74-3.3 6.09-3.51 10.05l-1.36 25.93-10.91-.57 1.42-27.01c.47-8.93-2.45-13.55-8.75-13.88-2.93-.15-5.42 1.06-7.44 3.65-2.03 2.58-3.15 6.01-3.38 10.29l-1.36 25.93-10.86-.57 2.51-47.93 10.86.57-.4 7.58.19.01c3.77-5.62 8.96-8.26 15.58-7.91 3.31.17 6.15 1.24 8.54 3.19 2.39 1.96 3.95 4.44 4.7 7.45 3.9-6.43 9.38-9.46 16.44-9.09 10.55.55 15.48 7.34 14.8 20.35l-1.55 29.54zM296.74 586.19l-.19-.01-1.53 29.12-10.86-.57 3.67-69.98 10.86.57-.44 8.43.19.01c4.05-6.17 9.64-9.07 16.79-8.7 6.08.32 10.72 2.71 13.89 7.16 3.18 4.45 4.58 10.29 4.2 17.49-.42 7.99-2.67 14.29-6.76 18.89-4.09 4.6-9.46 6.73-16.11 6.38-6.11-.32-10.68-3.25-13.71-8.79zm.71-18.93l-.31 5.95c-.18 3.5.78 6.52 2.88 9.07 2.1 2.55 4.87 3.92 8.3 4.1 4.03.21 7.27-1.19 9.73-4.21 2.46-3.02 3.83-7.33 4.13-12.95.25-4.71-.63-8.46-2.62-11.24-2-2.78-4.82-4.27-8.47-4.46-3.87-.2-7.05 1.01-9.55 3.63-2.52 2.62-3.87 5.99-4.09 10.11zM364.28 597.94c-7.4-.39-13.18-2.94-17.37-7.65-4.18-4.71-6.08-10.76-5.69-18.16.42-8.05 3.05-14.22 7.89-18.5 4.84-4.28 11.16-6.22 18.96-5.81 7.49.39 13.21 2.9 17.16 7.52 3.95 4.62 5.72 10.83 5.31 18.63-.4 7.65-2.98 13.65-7.73 18.02-4.73 4.37-10.92 6.35-18.53 5.95zm2.69-41.49c-4.24-.22-7.68 1.08-10.3 3.92-2.62 2.84-4.07 6.86-4.34 12.07-.26 5.02.78 9.04 3.12 12.06 2.35 3.02 5.61 4.64 9.79 4.86 4.28.22 7.63-1.02 10.08-3.74 2.44-2.72 3.8-6.7 4.08-11.94.28-5.27-.66-9.41-2.8-12.4-2.15-3-5.36-4.61-9.63-4.83zM443.03 600.94l-10.86-.57 1.42-27.01c.47-8.96-2.46-13.6-8.8-13.93-3.31-.17-6.1.92-8.39 3.29s-3.52 5.44-3.72 9.22l-1.43 27.34-10.91-.57 2.51-47.93 10.91.57-.42 7.96.19.01c3.91-5.87 9.25-8.62 16.02-8.27 5.21.27 9.1 2.17 11.67 5.71 2.57 3.53 3.69 8.49 3.35 14.89l-1.54 29.29zM497.96 582.75l-32.67-1.71c-.11 4.44 1.08 7.93 3.56 10.47 2.48 2.54 6 3.93 10.55 4.17 5.12.27 9.89-1.01 14.33-3.85l-.46 8.75c-4.51 2.52-10.36 3.59-17.54 3.21-7.05-.37-12.47-2.84-16.25-7.4s-5.47-10.79-5.05-18.69c.39-7.46 2.92-13.42 7.58-17.88 4.66-4.47 10.27-6.53 16.82-6.18s11.51 2.72 14.88 7.12c3.37 4.4 4.86 10.35 4.46 17.84l-.21 4.15zm-10.08-8.23c.17-3.9-.59-6.99-2.28-9.25-1.7-2.26-4.14-3.48-7.32-3.65-3.12-.16-5.83.84-8.11 3-2.29 2.16-3.78 5.07-4.47 8.73l22.18 1.17zM549.89 606.54l-10.86-.57 1.42-27.01c.47-8.96-2.46-13.6-8.8-13.93-3.31-.17-6.1.92-8.39 3.29-2.28 2.37-3.52 5.44-3.72 9.22l-1.43 27.34-10.91-.57 2.51-47.93 10.91.57-.42 7.96.19.01c3.91-5.87 9.24-8.62 16.02-8.27 5.21.27 9.1 2.17 11.67 5.71 2.57 3.53 3.68 8.49 3.35 14.89l-1.54 29.29zM588.45 608.05c-2.18.95-5 1.33-8.46 1.15-9.3-.49-13.71-5.19-13.25-14.12l1.42-27.1-8-.42.45-8.52 8 .42.58-11.09 11.02-2.52-.74 14.18 11.47.6-.45 8.52-11.47-.6-1.26 23.97c-.15 2.84.26 4.9 1.23 6.17s2.65 1.97 5.05 2.09c1.84.1 3.46-.35 4.86-1.34l-.45 8.61zM594.87 607.4l.53-10.06c3.9 3.3 8.29 5.08 13.19 5.34 6.55.34 9.93-1.42 10.14-5.29.06-1.09-.18-2.04-.7-2.83s-1.24-1.51-2.16-2.16c-.92-.64-2.02-1.23-3.29-1.77s-2.69-1.14-4.25-1.82c-1.92-.88-3.65-1.8-5.18-2.76-1.53-.96-2.79-2.02-3.78-3.18-.99-1.16-1.71-2.46-2.17-3.89-.46-1.43-.64-3.08-.54-4.96.12-2.31.77-4.32 1.96-6.02 1.18-1.71 2.73-3.11 4.63-4.22 1.9-1.11 4.04-1.9 6.42-2.39 2.37-.49 4.81-.66 7.3-.53 4.43.23 8.36 1.11 11.78 2.64l-.5 9.5c-3.25-2.49-7.06-3.84-11.43-4.07-1.37-.07-2.62 0-3.74.23-1.12.22-2.09.56-2.89 1.02-.81.46-1.45 1.03-1.92 1.71-.47.68-.73 1.44-.78 2.28-.05 1.03.12 1.92.52 2.66.4.74 1.01 1.41 1.84 2 .83.59 1.83 1.15 3.01 1.66 1.18.52 2.53 1.08 4.07 1.69 2.01.95 3.82 1.9 5.41 2.86 1.59.96 2.94 2.02 4.04 3.19s1.92 2.5 2.47 3.98c.55 1.48.77 3.22.67 5.22-.13 2.43-.8 4.53-2.02 6.28s-2.79 3.17-4.73 4.26c-1.93 1.09-4.14 1.86-6.62 2.3-2.48.45-5.08.6-7.79.46-5.25-.27-9.75-1.38-13.49-3.33z"/></g><g fill="#374D9C"><path d="M1226.3 422.04l-11.36-.99-7.98-16.51c-.72-1.52-1.43-2.82-2.15-3.92-.71-1.09-1.46-2-2.23-2.73s-1.64-1.28-2.59-1.67-2.04-.63-3.27-.74l-3.92-.34-2.08 23.78-9.68-.85 5.13-58.59 19.29 1.69c2.75.24 5.26.79 7.51 1.65 2.26.86 4.19 2.02 5.79 3.49 1.6 1.47 2.8 3.24 3.59 5.3.79 2.06 1.08 4.41.84 7.05-.18 2.07-.65 3.94-1.42 5.62-.76 1.68-1.77 3.14-3.02 4.39-1.25 1.25-2.71 2.28-4.39 3.1-1.68.81-3.53 1.39-5.57 1.74l-.01.16c1.01.69 1.88 1.43 2.6 2.22.73.79 1.41 1.6 2.05 2.42.64.82 1.27 1.75 1.88 2.78s1.28 2.22 2.01 3.57l8.98 17.38zm-31.16-53.82l-1.67 19.04 8.09.71c1.5.13 2.9.02 4.21-.33 1.31-.35 2.46-.92 3.46-1.71s1.82-1.79 2.44-3c.63-1.21 1.01-2.59 1.14-4.14.25-2.81-.45-5.08-2.08-6.81-1.63-1.74-4.11-2.75-7.43-3.04l-8.16-.72zM1266.88 407.1l-28.52-2.5c-.23 3.88.7 6.96 2.79 9.26s5.12 3.62 9.1 3.97c4.47.39 8.68-.59 12.65-2.93l-.67 7.64c-4.02 2.06-9.17 2.82-15.43 2.27-6.16-.54-10.82-2.86-13.99-6.97-3.17-4.11-4.45-9.6-3.85-16.5.57-6.51 2.96-11.65 7.17-15.41s9.18-5.39 14.9-4.89c5.72.5 9.99 2.73 12.8 6.68 2.81 3.95 3.93 9.2 3.36 15.73l-.31 3.65zm-8.57-7.5c.27-3.41-.3-6.13-1.71-8.16-1.42-2.03-3.51-3.17-6.29-3.41-2.72-.24-5.12.55-7.19 2.38-2.07 1.82-3.46 4.32-4.18 7.5l19.37 1.69zM1306.42 429.05l-9.19-.8.57-6.54-.16-.01c-3.33 4.76-7.78 6.89-13.37 6.41-4.11-.36-7.24-1.76-9.37-4.2-2.13-2.44-3.04-5.5-2.72-9.17.69-7.9 5.64-12.11 14.86-12.62l12.57-.67c.52-5.96-2.05-9.2-7.72-9.69-4.98-.44-9.63.89-13.93 3.97l.73-8.29c4.64-2.23 9.85-3.09 15.62-2.59 10.57.92 15.4 6.59 14.49 16.99l-2.38 27.21zm-7.35-21.35l-8.89.46c-2.75.12-4.86.6-6.32 1.44-1.46.85-2.3 2.48-2.51 4.91-.16 1.77.35 3.28 1.52 4.52 1.17 1.24 2.81 1.96 4.94 2.14 2.89.25 5.37-.55 7.44-2.42 2.07-1.86 3.24-4.33 3.51-7.41l.31-3.64zM1348.1 430.76c-3.52 1.64-7.57 2.26-12.14 1.86-6.21-.54-11.05-2.92-14.53-7.14-3.47-4.21-4.94-9.41-4.4-15.6.6-6.89 3.14-12.25 7.6-16.07s10.13-5.43 16.99-4.83c3.81.33 7.12 1.29 9.92 2.88l-.77 8.83c-2.72-2.43-5.73-3.79-9.03-4.08-4-.35-7.4.72-10.2 3.2-2.8 2.49-4.39 5.92-4.77 10.31-.38 4.33.53 7.86 2.72 10.57s5.32 4.25 9.38 4.61c3.4.3 6.73-.63 9.96-2.79l-.73 8.25zM1379.44 434.98c-1.93.76-4.41 1.01-7.44.75-8.12-.71-11.83-4.96-11.15-12.75l2.07-23.66-6.99-.61.65-7.44 6.99.61.85-9.68 9.72-1.87-1.08 12.38 10.01.88-.65 7.44-10.01-.88-1.83 20.92c-.22 2.48.08 4.29.88 5.43.81 1.14 2.26 1.8 4.36 1.99 1.61.14 3.04-.2 4.29-1.03l-.67 7.52zM1461.32 442.6l-10.62-.93-24.22-45.51c-.61-1.15-1.1-2.33-1.46-3.55l-.25-.02c.11 1.27-.02 3.97-.38 8.08l-3.36 38.41-9.4-.82 5.13-58.59 11.32.99 23.37 44.41c.99 1.84 1.62 3.11 1.89 3.79l.16.01c-.14-1.58-.04-4.22.28-7.92l3.3-37.75 9.36.82-5.12 58.58zM1506.88 446.59l-9.19-.8.57-6.54-.16-.01c-3.33 4.76-7.78 6.89-13.36 6.4-4.11-.36-7.24-1.76-9.37-4.2-2.13-2.44-3.04-5.49-2.72-9.17.69-7.9 5.64-12.11 14.86-12.62l12.57-.67c.52-5.96-2.05-9.2-7.72-9.69-4.98-.44-9.63.89-13.93 3.97l.73-8.29c4.64-2.23 9.85-3.09 15.62-2.59 10.57.93 15.4 6.59 14.49 17l-2.39 27.21zm-7.36-21.36l-8.89.46c-2.75.12-4.86.6-6.32 1.44-1.46.85-2.3 2.48-2.51 4.91-.16 1.77.35 3.28 1.52 4.52 1.17 1.24 2.81 1.96 4.94 2.14 2.89.25 5.37-.55 7.44-2.42 2.07-1.86 3.24-4.33 3.51-7.41l.31-3.64zM1540.54 449.08c-1.93.76-4.41 1.01-7.44.75-8.12-.71-11.83-4.96-11.15-12.75l2.07-23.66-6.99-.61.65-7.44 6.99.61.85-9.68 9.72-1.87-1.08 12.38 10.01.88-.65 7.44-10.01-.88-1.83 20.92c-.22 2.48.08 4.29.88 5.43.81 1.14 2.26 1.8 4.36 1.99 1.61.14 3.04-.2 4.29-1.02l-.67 7.51zM1558.16 451.07l-9.48-.83 3.66-41.84 9.48.83-3.66 41.84zm-.27-51.03c-1.55-.14-2.84-.76-3.85-1.86-1.01-1.11-1.45-2.43-1.32-3.99.14-1.55.8-2.8 1.99-3.74 1.19-.94 2.57-1.34 4.12-1.2 1.61.14 2.92.78 3.95 1.91 1.03 1.13 1.47 2.47 1.33 4.03-.13 1.47-.8 2.68-2.01 3.63-1.2.95-2.61 1.36-4.21 1.22zM1610.23 413.47l-19.84 40.42-10.26-.9-11.74-43.19 10.3.9 6.72 30.07c.52 2.21.79 4.13.81 5.75l.12.01c.42-1.99.96-3.79 1.62-5.38l12.3-28.57 9.97.89zM1649.37 440.57l-28.52-2.5c-.23 3.88.7 6.96 2.79 9.26s5.12 3.62 9.1 3.97c4.47.39 8.68-.59 12.65-2.93l-.67 7.64c-4.02 2.06-9.17 2.82-15.43 2.27-6.16-.54-10.82-2.86-13.99-6.97-3.17-4.11-4.45-9.6-3.85-16.5.57-6.51 2.96-11.65 7.17-15.41s9.18-5.39 14.9-4.89c5.72.5 9.99 2.73 12.8 6.68 2.81 3.95 3.93 9.2 3.36 15.73l-.31 3.65zm-8.57-7.5c.27-3.41-.3-6.13-1.71-8.16-1.42-2.03-3.51-3.17-6.29-3.41-2.72-.24-5.12.55-7.19 2.38-2.07 1.82-3.46 4.32-4.18 7.5l19.37 1.69zM1214.78 502.88c-4.61 1.9-10.2 2.57-16.77 1.99-8.5-.74-15.07-4.02-19.73-9.84s-6.6-13.08-5.83-21.8c.82-9.37 4.36-16.69 10.63-21.96 6.27-5.27 13.8-7.52 22.6-6.75 5.67.5 10.29 1.71 13.88 3.64l-.84 9.64c-3.74-2.69-8-4.24-12.77-4.66-6.35-.55-11.67 1.03-15.96 4.74-4.29 3.71-6.73 8.96-7.33 15.74-.56 6.46.82 11.76 4.17 15.91 3.34 4.15 8.01 6.49 14 7.01 5.53.48 10.44-.4 14.73-2.67l-.78 9.01zM1243.08 508.82c-6.46-.57-11.44-2.97-14.95-7.22s-4.99-9.6-4.42-16.05c.62-7.03 3.1-12.34 7.47-15.94 4.36-3.6 9.95-5.1 16.76-4.5 6.54.57 11.46 2.94 14.78 7.1 3.31 4.16 4.67 9.65 4.08 16.46-.58 6.67-3.02 11.85-7.31 15.52-4.3 3.66-9.77 5.21-16.41 4.63zm3.62-36.21c-3.71-.32-6.75.71-9.12 3.11-2.38 2.4-3.77 5.88-4.16 10.42-.38 4.38.4 7.93 2.36 10.64 1.96 2.71 4.76 4.22 8.41 4.54 3.73.33 6.71-.66 8.93-2.96 2.22-2.3 3.53-5.74 3.93-10.32.4-4.6-.29-8.25-2.07-10.93-1.79-2.67-4.55-4.17-8.28-4.5zM1337.14 516.06l-9.48-.83 1.99-22.8c.38-4.38.04-7.61-1.03-9.68-1.07-2.07-3.07-3.23-6.01-3.49-2.48-.22-4.69.84-6.64 3.16-1.95 2.33-3.07 5.22-3.37 8.68l-1.98 22.64-9.52-.83 2.06-23.58c.68-7.79-1.73-11.93-7.23-12.41-2.56-.22-4.77.76-6.62 2.96-1.85 2.2-2.94 5.16-3.27 8.89l-1.98 22.64-9.48-.83 3.66-41.84 9.48.83-.58 6.62.16.02c3.47-4.8 8.09-6.95 13.86-6.45 2.89.25 5.34 1.27 7.37 3.05 2.03 1.78 3.32 4 3.88 6.66 3.61-5.5 8.49-7.98 14.65-7.45 9.21.81 13.31 6.89 12.32 18.25l-2.24 25.79zM1358.88 511.74l-.16-.01-2.22 25.41-9.48-.83 5.34-61.08 9.48.83-.64 7.36.16.01c3.73-5.27 8.71-7.64 14.95-7.09 5.31.46 9.29 2.69 11.93 6.68 2.64 3.99 3.69 9.13 3.14 15.43-.61 6.97-2.77 12.41-6.49 16.31-3.72 3.9-8.48 5.6-14.28 5.09-5.34-.47-9.25-3.17-11.73-8.11zm1.2-16.53l-.45 5.19c-.27 3.05.48 5.72 2.24 8.02 1.76 2.29 4.14 3.57 7.14 3.84 3.51.31 6.39-.82 8.63-3.38 2.24-2.56 3.58-6.29 4.01-11.2.36-4.11-.29-7.42-1.95-9.91s-4.09-3.88-7.27-4.16c-3.38-.29-6.2.66-8.47 2.88-2.27 2.22-3.56 5.13-3.88 8.72zM1417.59 524.08c-6.46-.56-11.44-2.97-14.95-7.22s-4.99-9.6-4.42-16.05c.62-7.03 3.1-12.34 7.47-15.94 4.36-3.6 9.95-5.1 16.76-4.5 6.54.57 11.46 2.94 14.78 7.1s4.67 9.64 4.08 16.46c-.58 6.67-3.02 11.85-7.31 15.52-4.3 3.67-9.77 5.22-16.41 4.63zm3.62-36.2c-3.7-.32-6.75.71-9.12 3.11-2.38 2.4-3.77 5.87-4.17 10.42-.38 4.39.4 7.93 2.36 10.64 1.96 2.71 4.76 4.22 8.41 4.54 3.73.33 6.71-.66 8.93-2.96 2.22-2.3 3.53-5.74 3.93-10.32.4-4.6-.29-8.25-2.07-10.93-1.78-2.67-4.54-4.17-8.27-4.5zM1486.36 529.11l-9.48-.83 2.06-23.58c.68-7.82-1.74-11.97-7.27-12.45-2.89-.25-5.37.62-7.44 2.62-2.07 2-3.25 4.65-3.54 7.95l-2.09 23.86-9.52-.83 3.66-41.84 9.52.83-.61 6.95.16.01c3.59-5.01 8.35-7.26 14.26-6.74 4.55.4 7.89 2.18 10.03 5.34 2.14 3.17 2.96 7.54 2.47 13.12l-2.21 25.59zM1534.95 514.88l-28.52-2.49c-.23 3.88.7 6.96 2.79 9.26s5.12 3.62 9.1 3.97c4.47.39 8.68-.59 12.65-2.93l-.67 7.64c-4.02 2.06-9.17 2.82-15.43 2.27-6.16-.54-10.82-2.86-13.99-6.97s-4.45-9.61-3.85-16.5c.57-6.51 2.96-11.65 7.17-15.41s9.18-5.39 14.9-4.89c5.72.5 9.99 2.73 12.8 6.68s3.93 9.2 3.36 15.73l-.31 3.64zm-8.56-7.5c.27-3.41-.3-6.13-1.72-8.16-1.42-2.03-3.51-3.17-6.29-3.41-2.72-.24-5.12.55-7.19 2.38s-3.46 4.32-4.18 7.5l19.38 1.69zM1579.64 537.28l-9.48-.83 2.06-23.58c.68-7.82-1.74-11.97-7.27-12.45-2.89-.25-5.37.62-7.44 2.62-2.07 2-3.25 4.65-3.54 7.95l-2.09 23.86-9.52-.83 3.66-41.84 9.52.83-.61 6.95.16.01c3.59-5.01 8.35-7.26 14.26-6.74 4.55.4 7.89 2.18 10.03 5.35 2.14 3.16 2.96 7.54 2.47 13.12l-2.21 25.58zM1613.31 539.77c-1.93.76-4.41 1.01-7.44.75-8.12-.71-11.84-4.96-11.15-12.75l2.07-23.66-6.99-.61.65-7.44 6.99.61.85-9.68 9.71-1.87-1.08 12.38 10.01.88-.65 7.44-10.01-.88-1.83 20.92c-.22 2.48.08 4.29.88 5.43.81 1.14 2.26 1.8 4.35 1.99 1.61.14 3.04-.2 4.29-1.02l-.65 7.51zM1618.94 539.39l.77-8.79c3.3 3.01 7.1 4.7 11.37 5.07 5.72.5 8.73-.94 9.02-4.32.08-.95-.09-1.79-.52-2.49-.43-.71-1.04-1.36-1.83-1.95-.78-.59-1.73-1.14-2.82-1.65-1.1-.51-2.31-1.08-3.66-1.72-1.66-.83-3.14-1.69-4.45-2.57s-2.38-1.85-3.21-2.9-1.42-2.2-1.78-3.47c-.36-1.27-.46-2.72-.32-4.35.18-2.02.81-3.75 1.9-5.21 1.09-1.46 2.48-2.64 4.18-3.54 1.7-.91 3.59-1.54 5.68-1.89 2.09-.35 4.22-.43 6.4-.24 3.87.34 7.28 1.23 10.22 2.67l-.73 8.29c-2.77-2.27-6.06-3.58-9.87-3.91-1.2-.11-2.29-.08-3.28.08-.99.16-1.84.43-2.56.81-.72.38-1.3.85-1.73 1.43-.44.58-.68 1.24-.75 1.97-.08.9.04 1.68.37 2.34.33.66.84 1.26 1.55 1.8.71.54 1.57 1.06 2.58 1.54 1.01.49 2.18 1.02 3.5 1.6 1.73.89 3.28 1.78 4.65 2.67 1.36.89 2.51 1.86 3.43 2.91.92 1.05 1.6 2.24 2.04 3.55.43 1.31.58 2.84.42 4.59-.19 2.12-.84 3.93-1.96 5.43a12.31 12.31 0 01-4.27 3.58c-1.72.89-3.68 1.5-5.86 1.81-2.18.32-4.46.37-6.83.16-4.54-.37-8.43-1.48-11.65-3.3z"/></g><g fill="#374D9C"><path d="M1544.46 772.59c-3.95 1.63-8.75 2.2-14.37 1.71-7.28-.64-12.92-3.45-16.91-8.43-3.99-4.98-5.65-11.21-5-18.68.7-8.03 3.74-14.31 9.11-18.83 5.37-4.52 11.83-6.45 19.37-5.79 4.86.42 8.82 1.47 11.9 3.12l-.72 8.27c-3.21-2.3-6.86-3.64-10.94-3.99-5.44-.48-10 .88-13.68 4.06-3.68 3.18-5.77 7.68-6.28 13.5-.48 5.53.71 10.08 3.57 13.64 2.87 3.56 6.87 5.56 12 6.01 4.74.41 8.95-.35 12.62-2.28l-.67 7.69zM1568.72 777.67c-5.53-.48-9.81-2.55-12.82-6.19-3.01-3.64-4.27-8.23-3.79-13.76.53-6.02 2.66-10.58 6.4-13.66s8.53-4.37 14.37-3.86c5.6.49 9.83 2.52 12.67 6.08s4.01 8.27 3.5 14.1c-.5 5.72-2.59 10.15-6.26 13.3-3.68 3.17-8.37 4.49-14.07 3.99zm3.11-31.03c-3.17-.28-5.78.61-7.82 2.67s-3.23 5.04-3.57 8.93c-.33 3.76.35 6.8 2.03 9.12 1.68 2.32 4.08 3.62 7.21 3.89 3.2.28 5.75-.57 7.65-2.54 1.9-1.97 3.02-4.92 3.37-8.85.34-3.95-.25-7.07-1.77-9.37-1.54-2.28-3.91-3.57-7.1-3.85zM1618.99 752.89c-.91-.86-2.29-1.36-4.14-1.53-2.41-.21-4.51.7-6.31 2.73-1.8 2.03-2.86 4.91-3.19 8.65l-1.5 17.16-8.13-.71 3.14-35.86 8.12.71-.65 7.39.14.01c1.01-2.45 2.41-4.31 4.18-5.58 1.77-1.27 3.67-1.81 5.7-1.64 1.47.13 2.57.45 3.3.96l-.66 7.71zM1653.38 768.39l-24.45-2.14c-.2 3.32.6 5.97 2.39 7.94 1.79 1.97 4.39 3.1 7.8 3.4 3.83.33 7.44-.5 10.84-2.51l-.57 6.55c-3.45 1.77-7.86 2.42-13.23 1.95-5.28-.46-9.27-2.45-11.99-5.97-2.71-3.52-3.81-8.23-3.3-14.14.49-5.58 2.54-9.98 6.15-13.21 3.61-3.22 7.87-4.62 12.77-4.19 4.9.43 8.56 2.34 10.97 5.72 2.41 3.39 3.37 7.88 2.88 13.49l-.26 3.11zm-7.34-6.43c.23-2.92-.26-5.25-1.47-6.99-1.21-1.74-3.01-2.72-5.39-2.92-2.33-.2-4.39.47-6.16 2.04-1.77 1.56-2.96 3.71-3.58 6.43l16.6 1.44zM1406.08 832.75c-3.95 1.63-8.74 2.2-14.37 1.71-7.29-.64-12.92-3.45-16.91-8.43s-5.65-11.21-5-18.68c.7-8.03 3.74-14.31 9.11-18.82 5.37-4.52 11.83-6.45 19.37-5.79 4.86.42 8.82 1.47 11.9 3.12l-.72 8.27c-3.21-2.3-6.86-3.63-10.94-3.99-5.44-.48-10 .88-13.68 4.06s-5.77 7.68-6.28 13.5c-.48 5.54.71 10.08 3.57 13.64 2.87 3.56 6.87 5.56 12 6.01 4.74.42 8.95-.35 12.62-2.28l-.67 7.68zM1430.34 837.84c-5.53-.48-9.81-2.55-12.82-6.19-3.01-3.64-4.27-8.23-3.79-13.76.53-6.02 2.66-10.58 6.4-13.66s8.53-4.37 14.37-3.86c5.6.49 9.83 2.52 12.67 6.08 2.84 3.57 4 8.27 3.49 14.1-.5 5.72-2.59 10.16-6.26 13.3-3.67 3.16-8.36 4.49-14.06 3.99zm3.11-31.03c-3.18-.28-5.78.61-7.82 2.67s-3.23 5.04-3.57 8.93c-.33 3.76.35 6.8 2.03 9.12 1.68 2.32 4.08 3.62 7.21 3.89 3.2.28 5.75-.57 7.65-2.54 1.9-1.97 3.02-4.92 3.37-8.85.34-3.95-.25-7.07-1.77-9.37-1.54-2.28-3.91-3.57-7.1-3.85zM1510.97 844.05l-8.12-.71 1.71-19.54c.33-3.76.04-6.53-.88-8.3-.92-1.77-2.63-2.77-5.16-2.99-2.12-.19-4.02.72-5.69 2.71-1.67 2-2.63 4.47-2.89 7.44l-1.7 19.4-8.16-.71 1.77-20.21c.58-6.68-1.48-10.22-6.2-10.63-2.2-.19-4.09.65-5.67 2.54-1.59 1.88-2.52 4.43-2.8 7.62l-1.7 19.4-8.12-.71 3.14-35.86 8.12.71-.5 5.67.14.01c2.97-4.12 6.93-5.96 11.88-5.52 2.47.22 4.58 1.09 6.32 2.62 1.74 1.53 2.85 3.43 3.33 5.71 3.09-4.72 7.28-6.84 12.56-6.38 7.89.69 11.41 5.9 10.56 15.64l-1.94 22.09zM1529.61 840.35l-.14-.01-1.91 21.78-8.12-.71 4.58-52.36 8.12.71-.55 6.3.14.01c3.19-4.52 7.47-6.55 12.81-6.08 4.55.4 7.96 2.31 10.23 5.73 2.26 3.42 3.16 7.83 2.69 13.22-.52 5.98-2.38 10.64-5.56 13.98s-7.27 4.8-12.24 4.36c-4.58-.38-7.93-2.7-10.05-6.93zm1.02-14.17l-.39 4.45c-.23 2.62.41 4.91 1.92 6.87 1.51 1.97 3.55 3.06 6.12 3.29 3.01.26 5.48-.7 7.4-2.9s3.07-5.4 3.43-9.6c.31-3.53-.25-6.36-1.67-8.49-1.42-2.14-3.5-3.32-6.23-3.56-2.9-.25-5.31.57-7.26 2.47-1.94 1.9-3.05 4.39-3.32 7.47zM1579.92 850.93c-5.53-.48-9.81-2.55-12.82-6.18-3.01-3.64-4.27-8.23-3.79-13.76.53-6.02 2.66-10.58 6.4-13.66s8.53-4.37 14.37-3.86c5.6.49 9.83 2.52 12.67 6.08s4 8.27 3.49 14.1c-.5 5.72-2.59 10.16-6.26 13.3-3.67 3.15-8.36 4.48-14.06 3.98zm3.11-31.03c-3.18-.28-5.78.61-7.82 2.67s-3.23 5.04-3.57 8.93c-.33 3.76.35 6.8 2.03 9.12s4.08 3.62 7.21 3.9c3.2.28 5.75-.57 7.65-2.54s3.02-4.92 3.37-8.85c.34-3.95-.25-7.07-1.77-9.37-1.54-2.29-3.91-3.58-7.1-3.86zM1638.87 855.24l-8.12-.71 1.77-20.21c.59-6.7-1.49-10.26-6.23-10.67-2.48-.22-4.6.53-6.37 2.25-1.77 1.71-2.78 3.98-3.03 6.81l-1.79 20.45-8.16-.71 3.14-35.86 8.16.71-.52 5.95.14.01c3.08-4.29 7.16-6.22 12.22-5.78 3.9.34 6.76 1.87 8.6 4.58s2.54 6.46 2.12 11.25l-1.93 21.93zM1680.52 843.04l-24.45-2.14c-.2 3.32.6 5.97 2.39 7.94 1.79 1.97 4.39 3.1 7.8 3.4 3.83.33 7.44-.5 10.84-2.51l-.57 6.55c-3.45 1.77-7.86 2.42-13.23 1.95-5.28-.46-9.27-2.45-11.99-5.97-2.72-3.52-3.82-8.23-3.3-14.14.49-5.58 2.54-9.98 6.15-13.21 3.61-3.22 7.87-4.62 12.77-4.19 4.9.43 8.56 2.34 10.97 5.72 2.41 3.39 3.37 7.88 2.88 13.49l-.26 3.11zm-7.34-6.43c.23-2.92-.26-5.25-1.47-6.99-1.21-1.74-3.01-2.72-5.39-2.92-2.33-.2-4.39.48-6.16 2.04-1.77 1.56-2.96 3.71-3.58 6.43l16.6 1.44zM1718.83 862.23l-8.12-.71 1.77-20.21c.59-6.7-1.49-10.26-6.23-10.67-2.47-.22-4.6.53-6.37 2.25-1.77 1.71-2.78 3.99-3.03 6.81l-1.79 20.45-8.16-.71 3.14-35.86 8.16.71-.52 5.95.14.01c3.08-4.29 7.16-6.22 12.22-5.78 3.9.34 6.76 1.87 8.6 4.58s2.54 6.46 2.12 11.25l-1.93 21.93zM1747.68 864.37c-1.66.66-3.78.87-6.37.64-6.96-.61-10.14-4.25-9.56-10.93l1.77-20.28-5.99-.52.56-6.38 5.99.52.73-8.3 8.33-1.6-.93 10.61 8.58.75-.56 6.37-8.58-.75-1.57 17.93c-.19 2.12.07 3.68.76 4.66s1.94 1.54 3.73 1.7c1.38.12 2.6-.17 3.68-.88l-.57 6.46zM1752.51 864.05l.66-7.53c2.83 2.58 6.08 4.03 9.75 4.35 4.9.43 7.48-.8 7.73-3.7.07-.82-.08-1.53-.45-2.14-.37-.61-.89-1.17-1.57-1.67s-1.48-.98-2.42-1.41c-.94-.43-1.98-.93-3.14-1.47-1.42-.71-2.69-1.45-3.81-2.2-1.12-.76-2.04-1.58-2.75-2.48s-1.22-1.89-1.52-2.97-.4-2.33-.27-3.73c.15-1.73.69-3.22 1.62-4.46.93-1.25 2.13-2.26 3.58-3.04 1.46-.78 3.08-1.32 4.87-1.62 1.79-.3 3.62-.37 5.49-.21 3.32.29 6.24 1.05 8.76 2.28l-.62 7.11c-2.37-1.95-5.19-3.07-8.46-3.35-1.03-.09-1.96-.07-2.81.07-.85.14-1.58.37-2.2.69-.62.32-1.11.73-1.48 1.23-.37.5-.59 1.06-.64 1.69-.07.77.04 1.44.32 2 .28.57.72 1.08 1.33 1.55s1.34.91 2.21 1.32c.87.42 1.87.88 3 1.37 1.49.76 2.81 1.53 3.98 2.29s2.15 1.59 2.94 2.5c.79.9 1.37 1.92 1.75 3.05s.49 2.44.36 3.93c-.16 1.82-.72 3.37-1.68 4.65s-2.18 2.3-3.66 3.07-3.15 1.28-5.02 1.55c-1.87.27-3.82.32-5.85.14-3.9-.35-7.24-1.3-10-2.86z"/></g><g fill="#374D9C"><path d="M848.65 622.09c-3.95 1.63-8.75 2.2-14.37 1.71-7.28-.64-12.92-3.45-16.91-8.43-3.99-4.98-5.65-11.21-5-18.68.7-8.03 3.74-14.31 9.11-18.82s11.83-6.45 19.37-5.79c4.86.42 8.83 1.47 11.9 3.12l-.72 8.26c-3.21-2.3-6.86-3.63-10.94-3.99-5.44-.48-10 .88-13.68 4.06s-5.77 7.68-6.28 13.5c-.48 5.53.71 10.08 3.57 13.63 2.87 3.56 6.87 5.56 12 6.01 4.74.42 8.95-.35 12.62-2.28l-.67 7.7zM872.91 627.17c-5.53-.48-9.81-2.55-12.82-6.19-3.01-3.64-4.27-8.23-3.79-13.76.53-6.02 2.66-10.58 6.4-13.66s8.53-4.37 14.37-3.86c5.6.49 9.83 2.52 12.67 6.08 2.84 3.57 4.01 8.27 3.5 14.11-.5 5.72-2.59 10.15-6.26 13.3s-8.38 4.48-14.07 3.98zm3.1-31.03c-3.18-.28-5.78.61-7.82 2.67s-3.23 5.04-3.57 8.93c-.33 3.76.35 6.8 2.03 9.12 1.68 2.32 4.08 3.62 7.21 3.9 3.2.28 5.75-.57 7.65-2.54 1.9-1.97 3.02-4.92 3.37-8.84.34-3.95-.25-7.07-1.77-9.37-1.54-2.3-3.9-3.59-7.1-3.87zM953.53 633.38l-8.13-.71 1.71-19.54c.33-3.76.04-6.52-.88-8.3-.92-1.77-2.63-2.77-5.16-2.99-2.12-.19-4.02.72-5.69 2.71-1.67 1.99-2.63 4.47-2.89 7.44l-1.7 19.4-8.16-.71 1.77-20.21c.58-6.68-1.48-10.22-6.2-10.64-2.19-.19-4.09.65-5.67 2.54-1.59 1.88-2.52 4.43-2.8 7.62l-1.7 19.4-8.12-.71 3.14-35.86 8.12.71-.5 5.67.14.01c2.97-4.12 6.93-5.96 11.88-5.52 2.47.22 4.58 1.09 6.32 2.62 1.74 1.53 2.85 3.43 3.33 5.71 3.09-4.72 7.28-6.84 12.56-6.38 7.89.69 11.41 5.9 10.56 15.64l-1.93 22.1zM1017.06 638.94l-8.12-.71 1.71-19.54c.33-3.76.04-6.53-.88-8.3-.92-1.77-2.63-2.77-5.16-2.99-2.12-.19-4.02.72-5.69 2.71-1.67 1.99-2.63 4.47-2.89 7.44l-1.7 19.4-8.16-.71 1.77-20.21c.58-6.68-1.48-10.22-6.2-10.63-2.19-.19-4.08.65-5.67 2.54-1.59 1.88-2.52 4.43-2.8 7.62l-1.7 19.4-8.12-.71 3.14-35.86 8.12.71-.5 5.67.14.01c2.97-4.12 6.93-5.96 11.88-5.52 2.47.22 4.58 1.09 6.32 2.62 1.74 1.53 2.85 3.43 3.33 5.71 3.09-4.72 7.28-6.84 12.56-6.38 7.89.69 11.41 5.9 10.56 15.64l-1.94 22.09zM1058.25 642.54l-8.13-.71.5-5.67-.14-.01c-2.74 4.14-6.59 5.99-11.57 5.55-8.48-.74-12.27-6.2-11.38-16.38l1.88-21.43 8.12.71-1.8 20.59c-.56 6.44 1.64 9.88 6.61 10.32 2.4.21 4.46-.5 6.17-2.14 1.71-1.64 2.69-3.89 2.94-6.76l1.81-20.63 8.13.71-3.14 35.85zM1100.77 646.26l-8.12-.71 1.77-20.21c.59-6.7-1.49-10.26-6.23-10.67-2.48-.22-4.6.53-6.37 2.25-1.77 1.72-2.78 3.99-3.03 6.81l-1.79 20.45-8.16-.71 3.14-35.86 8.16.71-.52 5.95.14.01c3.08-4.29 7.16-6.22 12.22-5.78 3.9.34 6.76 1.87 8.6 4.58s2.54 6.46 2.12 11.25l-1.93 21.93zM1118.8 647.84l-8.12-.71 3.14-35.86 8.12.71-3.14 35.86zm-.23-43.75c-1.33-.12-2.43-.65-3.3-1.59-.87-.95-1.25-2.08-1.13-3.42.12-1.33.69-2.4 1.71-3.2 1.02-.8 2.2-1.15 3.53-1.03 1.38.12 2.51.67 3.38 1.64.88.97 1.26 2.12 1.15 3.45-.11 1.26-.68 2.3-1.72 3.11-1.03.82-2.24 1.17-3.62 1.04zM1148.36 650.04c-1.66.66-3.78.87-6.37.64-6.96-.61-10.14-4.25-9.56-10.93l1.77-20.28-5.99-.52.56-6.37 5.99.52.73-8.3 8.33-1.6-.93 10.61 8.58.75-.56 6.37-8.58-.75-1.57 17.93c-.19 2.12.07 3.68.76 4.65.69.98 1.94 1.55 3.73 1.7 1.38.12 2.6-.17 3.68-.88l-.57 6.46zM1189.53 617.89l-19.82 40.19c-4.01 7.13-9.05 10.43-15.12 9.9-1.7-.15-3.11-.43-4.23-.83l.59-6.76c1.25.53 2.4.85 3.45.94 3.04.27 5.43-1.03 7.19-3.89l2.93-5.67-11.12-37.04 9 .79 6.26 26.8c.07.33.2 1.22.4 2.65l.17.02c.16-.53.45-1.35.85-2.47l11.25-25.34 8.2.71zM824.2 692.22c-3.95 1.63-8.74 2.2-14.37 1.71-7.29-.64-12.92-3.45-16.91-8.43s-5.65-11.21-5-18.68c.7-8.03 3.74-14.31 9.11-18.82 5.37-4.52 11.83-6.45 19.37-5.79 4.86.42 8.82 1.47 11.9 3.12l-.72 8.26c-3.21-2.3-6.86-3.63-10.94-3.99-5.44-.48-10 .88-13.68 4.06-3.68 3.18-5.77 7.68-6.28 13.5-.48 5.53.71 10.08 3.57 13.63 2.87 3.56 6.87 5.56 12 6.01 4.74.42 8.95-.35 12.62-2.28l-.67 7.7zM848.46 697.31c-5.53-.48-9.81-2.55-12.82-6.19-3.01-3.64-4.27-8.23-3.79-13.76.53-6.02 2.66-10.58 6.4-13.66s8.53-4.37 14.37-3.86c5.6.49 9.83 2.52 12.67 6.08 2.84 3.57 4 8.27 3.49 14.1-.5 5.72-2.59 10.15-6.26 13.3-3.68 3.16-8.37 4.49-14.06 3.99zm3.1-31.03c-3.18-.28-5.78.61-7.82 2.67s-3.23 5.04-3.57 8.93c-.33 3.76.35 6.8 2.03 9.12 1.68 2.32 4.08 3.62 7.21 3.89 3.2.28 5.75-.57 7.65-2.54s3.02-4.92 3.37-8.85c.34-3.95-.25-7.07-1.77-9.37-1.54-2.28-3.9-3.57-7.1-3.85zM929.08 703.52l-8.12-.71 1.71-19.54c.33-3.76.04-6.53-.88-8.3-.92-1.77-2.63-2.77-5.16-2.99-2.12-.19-4.02.72-5.69 2.71-1.67 2-2.63 4.48-2.89 7.44l-1.7 19.4-8.16-.71 1.77-20.21c.58-6.68-1.48-10.22-6.2-10.64-2.19-.19-4.09.65-5.67 2.54s-2.52 4.43-2.8 7.62l-1.7 19.4-8.12-.71 3.14-35.86 8.12.71-.5 5.67.14.01c2.97-4.12 6.93-5.96 11.88-5.52 2.47.22 4.58 1.09 6.32 2.62 1.74 1.53 2.85 3.43 3.33 5.71 3.09-4.72 7.28-6.84 12.56-6.38 7.89.69 11.41 5.9 10.56 15.64l-1.94 22.1zM947.72 699.82l-.14-.01-1.91 21.78-8.12-.71 4.58-52.36 8.12.71-.55 6.3.14.01c3.19-4.52 7.47-6.55 12.81-6.08 4.55.4 7.96 2.31 10.23 5.73 2.26 3.42 3.16 7.83 2.69 13.22-.52 5.98-2.38 10.64-5.56 13.98s-7.27 4.8-12.24 4.36c-4.58-.38-7.93-2.7-10.05-6.93zm1.03-14.17l-.39 4.45c-.23 2.61.41 4.91 1.92 6.87 1.51 1.97 3.55 3.06 6.12 3.29 3.01.26 5.48-.7 7.4-2.9s3.07-5.4 3.43-9.6c.31-3.53-.25-6.36-1.67-8.49-1.42-2.14-3.5-3.32-6.23-3.56-2.9-.25-5.31.57-7.26 2.47s-3.05 4.39-3.32 7.47zM998.04 710.4c-5.53-.48-9.81-2.55-12.82-6.19-3.01-3.64-4.27-8.22-3.79-13.76.53-6.03 2.66-10.58 6.4-13.66s8.53-4.37 14.37-3.86c5.6.49 9.83 2.52 12.67 6.08 2.84 3.57 4 8.27 3.49 14.11-.5 5.72-2.59 10.15-6.26 13.3-3.68 3.15-8.37 4.47-14.06 3.98zm3.1-31.04c-3.18-.28-5.78.61-7.82 2.67s-3.23 5.04-3.57 8.93c-.33 3.76.35 6.8 2.03 9.12 1.68 2.32 4.08 3.62 7.21 3.9 3.2.28 5.75-.57 7.65-2.54 1.9-1.97 3.02-4.92 3.37-8.84.34-3.95-.25-7.07-1.77-9.37-1.54-2.3-3.9-3.59-7.1-3.87zM1056.98 714.71l-8.12-.71 1.77-20.21c.59-6.7-1.49-10.26-6.23-10.67-2.48-.22-4.6.53-6.37 2.25-1.77 1.71-2.78 3.98-3.03 6.81l-1.79 20.45-8.16-.71 3.14-35.86 8.16.71-.52 5.95.14.01c3.08-4.29 7.16-6.22 12.22-5.78 3.9.34 6.76 1.87 8.6 4.58s2.54 6.46 2.12 11.25l-1.93 21.93zM1098.63 702.5l-24.45-2.14c-.2 3.32.6 5.97 2.39 7.94 1.79 1.97 4.39 3.1 7.8 3.4 3.83.33 7.44-.5 10.84-2.51l-.57 6.55c-3.45 1.77-7.86 2.42-13.23 1.95-5.28-.46-9.27-2.45-11.99-5.97-2.71-3.52-3.81-8.23-3.3-14.14.49-5.58 2.54-9.98 6.15-13.21 3.61-3.22 7.87-4.62 12.77-4.19 4.9.43 8.56 2.34 10.97 5.72 2.41 3.39 3.37 7.88 2.88 13.49l-.26 3.11zm-7.34-6.43c.23-2.92-.26-5.25-1.47-6.99-1.21-1.74-3.01-2.72-5.39-2.92-2.33-.2-4.39.48-6.16 2.04-1.77 1.56-2.96 3.71-3.58 6.43l16.6 1.44zM1136.94 721.7l-8.12-.71 1.77-20.21c.59-6.7-1.49-10.26-6.23-10.67-2.47-.22-4.6.53-6.37 2.25-1.77 1.71-2.78 3.99-3.03 6.81l-1.79 20.45-8.16-.71 3.14-35.86 8.16.71-.52 5.95.14.01c3.08-4.29 7.16-6.22 12.22-5.78 3.9.34 6.76 1.87 8.6 4.58s2.54 6.46 2.12 11.25l-1.93 21.93zM1165.79 723.84c-1.66.65-3.78.87-6.37.64-6.96-.61-10.14-4.25-9.56-10.93l1.77-20.28-5.99-.52.56-6.37 5.99.52.73-8.3 8.33-1.6-.93 10.61 8.58.75-.56 6.37-8.58-.75-1.57 17.93c-.19 2.12.07 3.68.76 4.65.69.98 1.94 1.55 3.73 1.7 1.38.12 2.6-.17 3.68-.88l-.57 6.46zM1170.62 723.52l.66-7.53c2.83 2.58 6.08 4.03 9.75 4.35 4.9.43 7.48-.8 7.73-3.7.07-.82-.08-1.53-.45-2.14-.37-.61-.89-1.17-1.57-1.67-.67-.51-1.48-.98-2.42-1.41-.94-.44-1.98-.93-3.14-1.47-1.42-.71-2.69-1.45-3.81-2.2-1.12-.76-2.04-1.58-2.75-2.48-.71-.9-1.22-1.89-1.52-2.97-.31-1.09-.4-2.33-.27-3.73.15-1.73.69-3.21 1.63-4.46.93-1.25 2.13-2.26 3.58-3.04 1.46-.78 3.08-1.32 4.87-1.62 1.79-.3 3.62-.37 5.49-.21 3.32.29 6.24 1.05 8.76 2.28l-.62 7.11c-2.37-1.95-5.19-3.07-8.46-3.35-1.03-.09-1.96-.07-2.81.07-.85.14-1.58.37-2.2.69-.62.32-1.11.73-1.48 1.23-.37.5-.59 1.06-.64 1.69-.07.77.04 1.44.32 2s.72 1.08 1.33 1.54c.61.47 1.34.91 2.21 1.32.87.42 1.87.88 3 1.37 1.49.77 2.81 1.53 3.98 2.29s2.15 1.59 2.94 2.5c.79.9 1.37 1.92 1.75 3.05s.49 2.44.36 3.93c-.16 1.82-.72 3.37-1.68 4.65-.96 1.28-2.18 2.3-3.66 3.07s-3.15 1.28-5.02 1.55c-1.87.27-3.82.32-5.85.14-3.91-.34-7.25-1.29-10.01-2.85z"/></g><g fill="#374D9C"><path d="M958.55 951.06l-11.9 34.08 2.55 18.14-8.29 1.16-2.52-17.96-20.44-29.72 9.43-1.33 12.83 20.03c.15.24.63 1.15 1.45 2.74l.1-.01c.1-.77.35-1.79.74-3.05l7.26-22.85 8.79-1.23zM980.62 999.72c-5.5.77-10.13-.27-13.88-3.14s-6.02-7.05-6.79-12.55c-.84-5.99.21-10.9 3.16-14.75 2.95-3.85 7.33-6.18 13.13-6.99 5.57-.78 10.14.24 13.71 3.08 3.57 2.83 5.76 7.15 6.58 12.96.8 5.69-.24 10.48-3.11 14.37-2.87 3.88-7.14 6.23-12.8 7.02zm-3.96-30.93c-3.16.44-5.5 1.9-7.02 4.36-1.52 2.46-2.01 5.63-1.47 9.51.53 3.74 1.87 6.55 4.03 8.43 2.16 1.89 4.79 2.61 7.9 2.17 3.18-.45 5.47-1.85 6.88-4.2 1.41-2.35 1.84-5.48 1.29-9.38-.55-3.92-1.83-6.83-3.84-8.73-2-1.88-4.59-2.61-7.77-2.16zM1038.36 990.76l-8.08 1.13-.79-5.64-.14.02c-1.74 4.65-5.08 7.32-10.02 8.01-8.43 1.18-13.35-3.28-14.77-13.4l-2.99-21.31 8.08-1.13 2.88 20.47c.9 6.41 3.82 9.26 8.77 8.57 2.39-.34 4.23-1.49 5.53-3.47 1.3-1.98 1.74-4.4 1.34-7.25l-2.88-20.51 8.08-1.13 4.99 35.64zM1065.62 958.42c-1.08-.63-2.54-.82-4.37-.56-2.39.34-4.24 1.7-5.53 4.08-1.3 2.38-1.69 5.43-1.17 9.15l2.4 17.06-8.08 1.13-5.01-35.65 8.08-1.13 1.03 7.35.14-.02c.44-2.62 1.38-4.74 2.81-6.38 1.44-1.63 3.17-2.59 5.19-2.88 1.46-.21 2.61-.14 3.43.19l1.08 7.66zM1138.1 976.74l-9.05 1.27-29-33.34a16.32 16.32 0 01-1.9-2.68l-.21.03c.34 1.04.75 3.31 1.24 6.82l4.6 32.72-8.01 1.12-7.02-49.92 9.64-1.35 28.08 32.58c1.18 1.35 1.95 2.28 2.31 2.8l.14-.02c-.42-1.29-.85-3.51-1.29-6.67l-4.52-32.17 7.97-1.12 7.02 49.93zM1176.92 971.28l-7.83 1.1-.78-5.57-.14.02c-1.86 4.62-5.17 7.26-9.93 7.93-3.5.49-6.38-.07-8.63-1.7-2.25-1.62-3.6-4-4.04-7.14-.95-6.73 2.38-11.2 9.97-13.4l10.37-2.98c-.71-5.08-3.49-7.29-8.31-6.61-4.25.6-7.87 2.6-10.87 6l-.99-7.07c3.45-2.76 7.63-4.48 12.55-5.17 9-1.27 14.13 2.54 15.38 11.4l3.25 23.19zm-10.26-16.41l-7.34 2.1c-2.28.63-3.95 1.44-5 2.42-1.06.99-1.44 2.52-1.15 4.58.21 1.51.92 2.67 2.14 3.48 1.21.81 2.73 1.09 4.54.84 2.46-.35 4.38-1.5 5.75-3.45 1.37-1.96 1.87-4.25 1.5-6.87l-.44-3.1zM1205.52 966.87c-1.47 1.01-3.49 1.7-6.07 2.06-6.92.97-10.84-1.86-11.77-8.5l-2.83-20.16-5.95.84-.89-6.34 5.95-.84-1.16-8.25 7.75-3.43 1.48 10.55 8.53-1.2.89 6.34-8.53 1.2 2.5 17.83c.3 2.11.89 3.57 1.79 4.36.89.8 2.23 1.07 4.02.82 1.37-.19 2.5-.75 3.38-1.68l.91 6.4zM1210.55 922.57c-1.32.19-2.51-.08-3.58-.81s-1.68-1.75-1.87-3.07c-.19-1.32.13-2.49.95-3.51s1.89-1.61 3.21-1.8c1.37-.19 2.59.08 3.67.83s1.71 1.78 1.89 3.11c.18 1.25-.15 2.39-.97 3.42s-1.93 1.64-3.3 1.83zm10.06 42.57l-8.08 1.13-5.01-35.65 8.08-1.13 5.01 35.65zM1256.86 923.7l-8.78 37.59-8.74 1.23-18.13-33.81 8.77-1.23 11.41 23.82c.86 1.75 1.46 3.3 1.79 4.65l.11-.01c-.03-1.75.07-3.35.32-4.8l4.76-26.23 8.49-1.21zM1294.76 938.78l-24.3 3.42c.56 3.28 1.93 5.68 4.12 7.2 2.19 1.51 4.98 2.03 8.37 1.56 3.81-.54 7.14-2.16 10-4.88l.92 6.51c-2.96 2.5-7.11 4.12-12.45 4.87-5.25.74-9.59-.3-13.03-3.12-3.44-2.82-5.57-7.16-6.39-13.04-.78-5.55.23-10.3 3.02-14.25 2.79-3.95 6.63-6.27 11.5-6.96 4.87-.68 8.87.35 11.97 3.11 3.11 2.76 5.06 6.92 5.84 12.49l.43 3.09zm-8.6-4.61c-.43-2.9-1.43-5.06-3.01-6.48-1.57-1.42-3.54-1.97-5.91-1.64-2.32.33-4.17 1.45-5.54 3.37-1.37 1.92-2.05 4.28-2.04 7.07l16.5-2.32zM956.14 1072.89c-3.49 2.48-8.03 4.11-13.62 4.9-7.24 1.02-13.37-.45-18.37-4.41s-8.03-9.65-9.07-17.08c-1.12-7.98.42-14.78 4.64-20.39 4.22-5.61 10.07-8.94 17.57-10 4.83-.68 8.93-.56 12.3.37l1.15 8.22c-3.65-1.52-7.5-2-11.56-1.43-5.41.76-9.55 3.11-12.41 7.03-2.87 3.93-3.9 8.78-3.08 14.56.77 5.5 2.96 9.66 6.55 12.48 3.59 2.82 7.94 3.87 13.05 3.15 4.71-.66 8.64-2.35 11.79-5.06l1.06 7.66zM980.92 1072.39c-5.5.77-10.13-.27-13.88-3.14s-6.01-7.05-6.79-12.55c-.84-5.99.21-10.91 3.16-14.75 2.95-3.85 7.33-6.18 13.13-6.99 5.57-.78 10.14.24 13.71 3.08 3.57 2.83 5.76 7.15 6.58 12.96.8 5.69-.24 10.48-3.11 14.37-2.87 3.88-7.13 6.22-12.8 7.02zm-3.95-30.94c-3.16.44-5.5 1.9-7.02 4.36-1.52 2.46-2.01 5.63-1.47 9.51.53 3.74 1.87 6.55 4.03 8.43 2.16 1.89 4.79 2.61 7.9 2.17 3.18-.45 5.47-1.85 6.88-4.2 1.41-2.35 1.84-5.48 1.29-9.38-.55-3.92-1.83-6.83-3.84-8.73-2-1.88-4.59-2.6-7.77-2.16zM1060.88 1060.3l-8.08 1.13-2.73-19.43c-.52-3.74-1.43-6.37-2.72-7.89s-3.19-2.11-5.7-1.76c-2.11.3-3.76 1.61-4.93 3.92-1.18 2.32-1.56 4.95-1.14 7.9l2.71 19.29-8.11 1.14-2.82-20.09c-.93-6.64-3.74-9.63-8.43-8.97-2.18.31-3.83 1.56-4.96 3.75s-1.46 4.88-1.02 8.06l2.71 19.29-8.08 1.14-5.01-35.65 8.08-1.13.79 5.64.14-.02c1.97-4.68 5.41-7.36 10.33-8.06 2.46-.35 4.71.03 6.74 1.13s3.54 2.7 4.53 4.81c1.95-5.29 5.55-8.31 10.8-9.04 7.85-1.1 12.45 3.18 13.81 12.86l3.09 21.98zM1078.21 1052.5l-.14.02 3.04 21.65-8.08 1.13-7.31-52.05 8.08-1.14.88 6.27.14-.02c2.1-5.12 5.8-8.06 11.12-8.8 4.53-.64 8.28.46 11.25 3.28 2.98 2.82 4.84 6.92 5.6 12.28.83 5.94.08 10.9-2.28 14.88-2.35 3.98-6 6.31-10.95 7.01-4.55.64-8.33-.86-11.35-4.51zm-2.19-14.03l.62 4.42c.37 2.6 1.5 4.69 3.42 6.26 1.92 1.58 4.15 2.19 6.7 1.83 2.99-.42 5.18-1.92 6.56-4.49 1.38-2.57 1.77-5.95 1.19-10.12-.49-3.5-1.67-6.14-3.54-7.9-1.87-1.76-4.16-2.45-6.88-2.07-2.88.41-5.05 1.75-6.51 4.04-1.47 2.29-1.99 4.96-1.56 8.03zM1129.62 1051.49c-5.5.77-10.13-.27-13.88-3.14s-6.01-7.05-6.79-12.55c-.84-5.99.21-10.91 3.16-14.75 2.95-3.85 7.33-6.18 13.13-6.99 5.57-.78 10.14.24 13.71 3.08 3.57 2.84 5.76 7.15 6.58 12.96.8 5.69-.24 10.48-3.11 14.37-2.87 3.88-7.14 6.23-12.8 7.02zm-3.96-30.93c-3.16.44-5.5 1.9-7.02 4.36-1.52 2.46-2.01 5.63-1.47 9.51.53 3.74 1.87 6.55 4.03 8.43 2.16 1.89 4.79 2.61 7.9 2.17 3.18-.45 5.47-1.85 6.88-4.2 1.41-2.35 1.84-5.48 1.29-9.38-.55-3.92-1.83-6.83-3.84-8.73-2-1.89-4.59-2.61-7.77-2.16zM1188.02 1042.43l-8.08 1.14-2.82-20.09c-.94-6.66-3.76-9.66-8.47-9-2.46.35-4.36 1.55-5.7 3.62-1.34 2.07-1.82 4.51-1.42 7.32l2.86 20.33-8.11 1.14-5.01-35.65 8.11-1.14.83 5.92.14-.02c2.04-4.88 5.57-7.67 10.61-8.38 3.88-.54 7.01.3 9.41 2.53 2.4 2.23 3.93 5.73 4.6 10.48l3.05 21.8zM1225.86 1021.17l-24.3 3.42c.56 3.28 1.93 5.68 4.12 7.2 2.19 1.52 4.98 2.03 8.37 1.56 3.81-.54 7.14-2.16 10-4.88l.92 6.51c-2.96 2.5-7.11 4.12-12.45 4.87-5.25.74-9.59-.3-13.02-3.12-3.44-2.82-5.57-7.16-6.39-13.04-.78-5.55.23-10.3 3.02-14.25 2.79-3.95 6.63-6.27 11.5-6.96 4.87-.68 8.87.35 11.98 3.11 3.11 2.76 5.06 6.92 5.84 12.49l.41 3.09zm-8.6-4.61c-.43-2.9-1.43-5.06-3.01-6.48-1.57-1.42-3.54-1.97-5.91-1.64-2.32.33-4.17 1.45-5.54 3.37-1.38 1.92-2.06 4.28-2.04 7.07l16.5-2.32zM1267.5 1031.26l-8.08 1.14-2.82-20.09c-.94-6.66-3.76-9.66-8.47-9-2.46.35-4.36 1.55-5.7 3.62-1.34 2.07-1.82 4.51-1.42 7.32l2.86 20.33-8.11 1.14-5.01-35.65 8.11-1.14.83 5.92.14-.02c2.04-4.88 5.57-7.67 10.61-8.38 3.88-.54 7.01.3 9.41 2.53s3.93 5.73 4.6 10.48l3.05 21.8zM1296.1 1026.85c-1.47 1.01-3.49 1.7-6.07 2.06-6.92.97-10.84-1.86-11.77-8.5l-2.83-20.16-5.95.84-.89-6.34 5.95-.84-1.16-8.25 7.75-3.43 1.48 10.55 8.53-1.2.89 6.34-8.53 1.2 2.51 17.82c.3 2.11.89 3.57 1.78 4.37s2.23 1.07 4.02.82c1.37-.19 2.5-.75 3.38-1.68l.91 6.4zM1300.73 1025.46l-1.05-7.49c3.34 1.87 6.83 2.55 10.48 2.04 4.87-.69 7.11-2.47 6.7-5.34-.11-.81-.42-1.47-.92-1.98s-1.13-.94-1.9-1.28c-.77-.34-1.66-.62-2.67-.83-1.01-.21-2.14-.46-3.39-.73-1.54-.38-2.95-.8-4.21-1.29-1.26-.49-2.34-1.08-3.24-1.8a8.398 8.398 0 01-2.15-2.56c-.54-.99-.91-2.18-1.11-3.57-.24-1.72-.05-3.29.58-4.71.63-1.43 1.56-2.68 2.81-3.77 1.24-1.09 2.7-1.98 4.38-2.67 1.68-.7 3.44-1.18 5.3-1.44 3.3-.46 6.31-.38 9.05.25l.99 7.07c-2.75-1.37-5.75-1.82-9-1.36-1.02.14-1.93.38-2.72.7-.79.32-1.46.71-1.98 1.17-.53.45-.92.96-1.17 1.53-.25.57-.33 1.17-.25 1.79.11.77.36 1.39.76 1.88s.95.89 1.64 1.21c.69.32 1.51.58 2.45.79.94.21 2.02.43 3.24.66 1.62.41 3.08.86 4.39 1.33 1.31.48 2.45 1.07 3.43 1.77.97.7 1.77 1.56 2.38 2.58.62 1.01 1.03 2.26 1.24 3.75.25 1.81.06 3.45-.59 4.91-.65 1.46-1.6 2.73-2.87 3.81s-2.78 1.96-4.55 2.64c-1.76.69-3.65 1.17-5.67 1.45-3.87.56-7.34.38-10.38-.51z"/></g></svg>