<svg viewBox="0 0 293.81 556.93" xmlns="http://www.w3.org/2000/svg"><path d="m259.36 10.09-161.84-10.02c-20.28-1.26-37.83 15.5-39.08 35.78l-24.23 391.15a36.8 36.8 0 0 0 34.45 39l161.84 10a36.8 36.8 0 0 0 39-34.45l24.23-391.12c1.27-20.29-14.08-39.08-34.37-40.34z" fill="#99d5e7"/><path d="m55.48 192.66 2.29-36.94 223.97-57.26-2.47 39.93zm-13.22 213.59 10.87-175.67 225.02-74.23-11.8 190.64-224.09 59.26z" fill="#d6eef5"/><path d="m259.36 10.09-161.84-10.02c-20.28-1.26-37.83 15.5-39.08 35.78l-24.23 391.15a36.8 36.8 0 0 0 34.45 39l161.84 10a36.8 36.8 0 0 0 39-34.45l24.23-391.12c1.27-20.29-14.08-39.08-34.37-40.34zm-8.69 430.24a19.5 19.5 0 0 1 -20.67 18.26l-158-9.78a20.5 20.5 0 0 1 -19.19-21.72l24.27-391.93a19.59 19.59 0 0 1 20.77-18.34l20.08 1.24a3.63 3.63 0 0 1 3.4 3.84v.38a12.5 12.5 0 0 0 11.67 13.26l85.43 5.29a12.15 12.15 0 0 0 12.88-11.38v.56a4.93 4.93 0 0 1 5.21-4.61l19.29 1.2a20.46 20.46 0 0 1 19.19 21.69z" fill="#134484"/><rect fill="#0069ac" height="4.95" rx="2.47" transform="matrix(.99809194 .06174535 -.06174535 .99809194 1.970012 -10.839982)" width="28.05" x="162.1" y="23.87"/><path d="m186.24 79.22-164.62 12.08a23.33 23.33 0 0 0 -21.56 25l30.76 419.02a23.33 23.33 0 0 0 25 21.55l164.62-12.08a23.33 23.33 0 0 0 21.55-25l-30.79-419.02a23.31 23.31 0 0 0 -24.96-21.55z" fill="#97aad8"/><path d="m186.24 79.22-164.62 12.08a23.33 23.33 0 0 0 -21.56 25l30.76 419.02a23.33 23.33 0 0 0 25 21.55l164.62-12.08a23.33 23.33 0 0 0 21.55-25l-30.79-419.02a23.31 23.31 0 0 0 -24.96-21.55z" fill="#97aad8"/><path d="m218.32 252.15-193.1 88.29 9.56 130.25 193.5-82.9zm-1.83-24.93-192.41 97.6-3.05-41.51 193.78-79.03z" fill="#d5e2f5"/><path d="m186.24 79.22-164.62 12.08a23.33 23.33 0 0 0 -21.56 25l30.76 419.02a23.33 23.33 0 0 0 25 21.55l164.62-12.08a23.33 23.33 0 0 0 21.55-25l-30.79-419.02a23.31 23.31 0 0 0 -24.96-21.55zm45.47 419.6a12.29 12.29 0 0 1 -11.35 13.18l-168.36 12.34a13.26 13.26 0 0 1 -14.19-12.26l-29.06-396a15.8 15.8 0 0 1 14.6-16.92l40.05-2.94a6.13 6.13 0 0 1 6.6 5.78l.35 4.69a13.18 13.18 0 0 0 14.12 12.19l42.64-3.13a12.84 12.84 0 0 0 11.89-13.75l-.37-5.08a6.09 6.09 0 0 1 5.64-6.53l41.51-3a15.71 15.71 0 0 1 16.82 14.53z" fill="#374d9c"/><g fill="#5971b5"><rect height="4.01" rx="2" transform="matrix(.99731448 -.0732382 .0732382 .99731448 -38.789965 11.410011)" width="62.11" x="105.2" y="532.89"/><rect height="4.01" rx="2" transform="matrix(.99731448 -.0732382 .0732382 .99731448 -7.620047 7.94999)" width="22.71" x="93.24" y="105.97"/></g></svg>