<?xml version="1.0" encoding="UTF-8"?>
<svg width="498px" height="452px" viewBox="0 0 498 452" version="1.1" xmlns="http://www.w3.org/2000/svg" xmlns:xlink="http://www.w3.org/1999/xlink">
    <!-- Generator: Sketch 55.2 (78181) - https://sketchapp.com -->
    <title>Group</title>
    <desc>Created with Sketch.</desc>
    <g id="Welcome" stroke="none" stroke-width="1" fill="none" fill-rule="evenodd">
        <g id="Artboard" transform="translate(-521.000000, -104.000000)">
            <g id="Group" transform="translate(521.000000, 104.000000)">
                <rect id="Rectangle" stroke="#979797" stroke-width="3" x="48.5" y="123.5" width="183" height="141" rx="10"></rect>
                <g id="Arrow-29-Copy-2" transform="translate(197.500000, 85.000000) rotate(-240.000000) translate(-197.500000, -85.000000) translate(177.000000, 77.000000)">
                    <path d="M0,8 C0,8 0.455520749,8 0.998245642,8 L29,8" id="Stroke-29" stroke="#999999" stroke-width="6"></path>
                    <path d="M40.2835353,9.07989948 C41.2159928,8.48358855 41.2191798,7.51881557 40.2835353,6.92046658 L30.3693163,0.580277512 C28.5084943,-0.609726812 27,0.209898327 27,2.41657428 L27,13.5837918 C27,15.7879548 28.5041128,16.6128949 30.3693163,15.4200885 L40.2835353,9.07989948 Z" id="Arrow-head-29" fill="#999999"></path>
                </g>
                <g id="Arrow-29-Copy-3" transform="translate(107.178203, 296.007042) rotate(-240.000000) translate(-107.178203, -296.007042) translate(86.678203, 288.007042)">
                    <path d="M0,8 C0,8 0.455520749,8 0.998245642,8 L29,8" id="Stroke-29" stroke="#999999" stroke-width="6"></path>
                    <path d="M40.2835353,9.07989948 C41.2159928,8.48358855 41.2191798,7.51881557 40.2835353,6.92046658 L30.3693163,0.580277512 C28.5084943,-0.609726812 27,0.209898327 27,2.41657428 L27,13.5837918 C27,15.7879548 28.5041128,16.6128949 30.3693163,15.4200885 L40.2835353,9.07989948 Z" id="Arrow-head-29" fill="#999999"></path>
                </g>
                <g id="Arrow-29-Copy-2" transform="translate(265.500000, 85.000000) scale(-1, 1) rotate(-240.000000) translate(-265.500000, -85.000000) translate(245.000000, 77.000000)">
                    <path d="M0,8 C0,8 0.455520749,8 0.998245642,8 L29,8" id="Stroke-29" stroke="#999999" stroke-width="6"></path>
                    <path d="M40.2835353,9.07989948 C41.2159928,8.48358855 41.2191798,7.51881557 40.2835353,6.92046658 L30.3693163,0.580277512 C28.5084943,-0.609726812 27,0.209898327 27,2.41657428 L27,13.5837918 C27,15.7879548 28.5041128,16.6128949 30.3693163,15.4200885 L40.2835353,9.07989948 Z" id="Arrow-head-29" fill="#999999"></path>
                </g>
                <g id="Arrow-29-Copy-7" transform="translate(175.178203, 295.753521) scale(-1, 1) rotate(-240.000000) translate(-175.178203, -295.753521) translate(154.678203, 287.753521)">
                    <path d="M0,8 C0,8 0.455520749,8 0.998245642,8 L29,8" id="Stroke-29" stroke="#999999" stroke-width="6"></path>
                    <path d="M40.2835353,9.07989948 C41.2159928,8.48358855 41.2191798,7.51881557 40.2835353,6.92046658 L30.3693163,0.580277512 C28.5084943,-0.609726812 27,0.209898327 27,2.41657428 L27,13.5837918 C27,15.7879548 28.5041128,16.6128949 30.3693163,15.4200885 L40.2835353,9.07989948 Z" id="Arrow-head-29" fill="#999999"></path>
                </g>
                <g id="Small-Button-Copy-2" transform="translate(169.000000, 0.000000)">
                    <rect id="Background" stroke="#999999" stroke-width="3" x="1.5" y="1.5" width="123" height="52" rx="8"></rect>
                    <text id="Text" font-family="Helvetica" font-size="18" font-weight="normal" fill="#3D3D3D">
                        <tspan x="33.4863281" y="33">App.jsx</tspan>
                    </text>
                </g>
                <g id="Small-Button-Copy-3" transform="translate(56.000000, 198.000000)">
                    <rect id="Background" stroke="#4077F7" x="1.5" y="0.5" width="167" height="54" rx="8"></rect>
                    <text id="Text" font-family="Helvetica" font-size="18" font-weight="normal" fill="#3D3D3D">
                        <tspan x="27.4765625" y="33">Header.ios.jsx</tspan>
                    </text>
                </g>
                <g id="Small-Button-Copy-5" transform="translate(56.000000, 134.000000)">
                    <rect id="Background" stroke="#0CA40D" x="0.5" y="0.5" width="167" height="54" rx="8"></rect>
                    <text id="Text" font-family="Helvetica" font-size="18" font-weight="normal" fill="#3D3D3D">
                        <tspan x="8.45800781" y="33">Header.android.jsx</tspan>
                    </text>
                </g>
                <g id="Small-Button-Copy-4" transform="translate(258.000000, 122.000000)">
                    <rect id="Background" stroke="#999999" stroke-width="3" x="1.5" y="1.5" width="123" height="52" rx="8"></rect>
                    <text id="Text" font-family="Helvetica" font-size="18" font-weight="normal" fill="#3D3D3D">
                        <tspan x="28.9863281" y="33">Body.jsx</tspan>
                    </text>
                </g>
                <g id="Small-Button-Copy-6" transform="translate(0.000000, 325.000000)">
                    <rect id="Background" stroke="#999999" stroke-width="3" x="1.5" y="1.5" width="123" height="52" rx="8"></rect>
                    <text id="Text" font-family="Helvetica" font-size="18" font-weight="normal" fill="#3D3D3D">
                        <tspan x="37.9863281" y="33">Image</tspan>
                    </text>
                </g>
                <g id="Small-Button-Copy-11" transform="translate(151.000000, 325.000000)">
                    <rect id="Background" stroke="#999999" stroke-width="3" x="1.5" y="1.5" width="123" height="52" rx="8"></rect>
                    <text id="Text" font-family="Helvetica" font-size="18" font-weight="normal" fill="#3D3D3D">
                        <tspan x="45.496582" y="33">Text</tspan>
                    </text>
                </g>
                <g id="Small-Button-Copy-7" transform="translate(372.000000, 191.000000)">
                    <rect id="Background" stroke="#999999" stroke-width="3" x="1.5" y="1.5" width="123" height="52" rx="8"></rect>
                    <text id="Text" font-family="Helvetica" font-size="18" font-weight="normal" fill="#3D3D3D">
                        <tspan x="45.496582" y="33">Text</tspan>
                    </text>
                </g>
                <g id="Small-Button-Copy-8" transform="translate(372.000000, 260.000000)">
                    <rect id="Background" stroke="#999999" stroke-width="3" x="1.5" y="1.5" width="123" height="52" rx="8"></rect>
                    <text id="Text" font-family="Helvetica" font-size="18" font-weight="normal" fill="#3D3D3D">
                        <tspan x="45.496582" y="33">Text</tspan>
                    </text>
                </g>
                <g id="Small-Button-Copy-9" transform="translate(372.000000, 329.000000)">
                    <rect id="Background" stroke="#999999" stroke-width="3" x="1.5" y="1.5" width="123" height="52" rx="8"></rect>
                    <text id="Text" font-family="Helvetica" font-size="18" font-weight="normal" fill="#3D3D3D">
                        <tspan x="45.496582" y="33">Text</tspan>
                    </text>
                </g>
                <g id="Small-Button-Copy-10" transform="translate(372.000000, 397.000000)">
                    <rect id="Background" stroke="#999999" stroke-width="3" x="1.5" y="1.5" width="123" height="52" rx="8"></rect>
                    <text id="Text" font-family="Helvetica" font-size="18" font-weight="normal" fill="#3D3D3D">
                        <tspan x="45.496582" y="33">Text</tspan>
                    </text>
                </g>
                <polygon id="Rectangle-2-Copy" fill="#999999" transform="translate(321.500000, 307.000000) scale(-1, 1) rotate(-270.000000) translate(-321.500000, -307.000000) " points="201 304 442 304 442 310 201 310"></polygon>
                <g id="Arrow-29" transform="translate(343.500000, 219.000000) scale(-1, 1) rotate(-180.000000) translate(-343.500000, -219.000000) translate(323.000000, 211.000000)">
                    <g>
                        <path d="M0,8.5 C0,8.5 0.674155919,8.5 1.49809915,8.5 L29,8.5" id="Stroke-29" stroke="#999999" stroke-width="6"></path>
                        <path d="M40.2835353,9.57993401 C41.2159928,8.98362308 41.2191798,8.0188501 40.2835353,7.4205011 L30.3693163,1.08031204 C28.5084943,-0.109692288 27,0.709932852 27,2.91660881 L27,14.0838263 C27,16.2879893 28.5041128,17.1129294 30.3693163,15.9201231 L40.2835353,9.57993401 Z" id="Arrow-head-29" fill="#999999"></path>
                    </g>
                </g>
                <g id="Arrow-29" transform="translate(343.500000, 357.000000) scale(-1, 1) rotate(-180.000000) translate(-343.500000, -357.000000) translate(323.000000, 349.000000)">
                    <g>
                        <path d="M0,8.5 C0,8.5 0.674155919,8.5 1.49809915,8.5 L29,8.5" id="Stroke-29" stroke="#999999" stroke-width="6"></path>
                        <path d="M40.2835353,9.57993401 C41.2159928,8.98362308 41.2191798,8.0188501 40.2835353,7.4205011 L30.3693163,1.08031204 C28.5084943,-0.109692288 27,0.709932852 27,2.91660881 L27,14.0838263 C27,16.2879893 28.5041128,17.1129294 30.3693163,15.9201231 L40.2835353,9.57993401 Z" id="Arrow-head-29" fill="#999999"></path>
                    </g>
                </g>
                <g id="Arrow-29" transform="translate(343.500000, 288.000000) scale(-1, 1) rotate(-180.000000) translate(-343.500000, -288.000000) translate(323.000000, 280.000000)">
                    <g>
                        <path d="M0,8.5 C0,8.5 0.674155919,8.5 1.49809915,8.5 L29,8.5" id="Stroke-29" stroke="#999999" stroke-width="6"></path>
                        <path d="M40.2835353,9.57993401 C41.2159928,8.98362308 41.2191798,8.0188501 40.2835353,7.4205011 L30.3693163,1.08031204 C28.5084943,-0.109692288 27,0.709932852 27,2.91660881 L27,14.0838263 C27,16.2879893 28.5041128,17.1129294 30.3693163,15.9201231 L40.2835353,9.57993401 Z" id="Arrow-head-29" fill="#999999"></path>
                    </g>
                </g>
                <g id="Arrow-29" transform="translate(343.500000, 424.000000) scale(-1, 1) rotate(-180.000000) translate(-343.500000, -424.000000) translate(323.000000, 416.000000)">
                    <g>
                        <path d="M0,8.5 C0,8.5 0.674155919,8.5 1.49809915,8.5 L29,8.5" id="Stroke-29" stroke="#999999" stroke-width="6"></path>
                        <path d="M40.2835353,9.57993401 C41.2159928,8.98362308 41.2191798,8.0188501 40.2835353,7.4205011 L30.3693163,1.08031204 C28.5084943,-0.109692288 27,0.709932852 27,2.91660881 L27,14.0838263 C27,16.2879893 28.5041128,17.1129294 30.3693163,15.9201231 L40.2835353,9.57993401 Z" id="Arrow-head-29" fill="#999999"></path>
                    </g>
                </g>
            </g>
        </g>
    </g>
</svg>